<svg width="750" height="1242" viewBox="0 0 750 1242" fill="none" xmlns="http://www.w3.org/2000/svg">
<rect x="10" y="163" width="739" height="900" fill="url(#paint0_linear_9461_902)"/>
<g filter="url(#filter0_i_9461_902)">
<rect width="11.5498" height="254.7" transform="matrix(-0.862205 -0.50656 -2.16493e-08 1 109.232 270.263)" fill="url(#paint1_radial_9461_902)"/>
</g>
<g filter="url(#filter1_i_9461_902)">
<rect width="11.5498" height="200.488" transform="matrix(-0.862205 -0.50656 -0.862205 0.50656 282.098 168.851)" fill="url(#paint2_radial_9461_902)"/>
</g>
<g filter="url(#filter2_i_9461_902)">
<rect width="11.5498" height="254.7" transform="matrix(-0.862205 -0.50656 -2.16493e-08 1 9.95827 367.774)" fill="url(#paint3_radial_9461_902)"/>
</g>
<g filter="url(#filter3_i_9461_902)">
<rect width="11.5498" height="200.488" transform="matrix(-0.862205 -0.50656 -0.862205 0.50656 182.825 266.362)" fill="url(#paint4_radial_9461_902)"/>
</g>
<g clip-path="url(#clip0_9461_902)" filter="url(#filter4_i_9461_902)">
<rect width="200.582" height="254.7" transform="matrix(-0.862205 0.50656 2.16493e-08 1 282.098 168.851)" fill="url(#paint5_radial_9461_902)"/>
</g>
<path d="M375.747 574.918L371.841 564.528H358.599L354.693 574.918H350.786L363.677 542.067H366.88L379.693 574.918H375.747ZM370.513 561.09L366.607 550.973C366.019 549.425 365.51 547.847 365.083 546.247C364.732 547.653 364.263 549.254 363.677 550.973L359.771 561.09H370.513Z" fill="white"/>
<path d="M384.146 574.918V542.184H388.052V574.918H384.146Z" fill="white"/>
<path d="M407.74 574.917H406.568V558.55H415.514V559.605H407.701V566.753H415.045V567.808H407.74V574.917Z" fill="white"/>
<path d="M431.764 566.754C431.88 568.979 431.187 571.172 429.811 572.926C429.116 573.641 428.284 574.21 427.364 574.599C426.445 574.988 425.457 575.188 424.459 575.188C423.461 575.188 422.474 574.988 421.554 574.599C420.635 574.21 419.803 573.641 419.108 572.926C417.743 571.168 417.063 568.975 417.194 566.754C417.059 564.526 417.755 562.327 419.147 560.582C419.816 559.835 420.644 559.247 421.57 558.862C422.496 558.477 423.497 558.303 424.498 558.355C425.504 558.303 426.508 558.479 427.435 558.872C428.362 559.264 429.188 559.862 429.85 560.621C431.196 562.373 431.875 564.547 431.764 566.754ZM418.405 566.754C418.289 568.689 418.841 570.605 419.967 572.183C420.544 572.796 421.24 573.284 422.013 573.617C422.785 573.951 423.618 574.123 424.459 574.123C425.301 574.123 426.133 573.951 426.906 573.617C427.678 573.284 428.375 572.796 428.952 572.183C430.096 570.599 430.648 568.664 430.514 566.715C430.642 564.778 430.09 562.857 428.952 561.285C428.372 560.684 427.677 560.205 426.909 559.879C426.14 559.552 425.314 559.383 424.479 559.383C423.644 559.383 422.817 559.552 422.049 559.879C421.28 560.205 420.586 560.684 420.006 561.285C418.83 562.855 418.261 564.797 418.405 566.754Z" fill="white"/>
<path d="M436.491 567.809V574.918H435.358V558.551H439.264C440.845 558.437 442.42 558.834 443.757 559.684C444.259 560.087 444.654 560.608 444.906 561.201C445.158 561.794 445.26 562.44 445.202 563.082C445.243 564.078 444.939 565.057 444.343 565.856C443.671 566.663 442.75 567.226 441.725 567.457L446.139 574.918H444.772L440.593 567.809H436.491ZM436.491 566.754H439.616C440.76 566.821 441.892 566.49 442.819 565.817C443.204 565.478 443.506 565.055 443.703 564.581C443.899 564.107 443.984 563.594 443.952 563.082C443.991 562.57 443.908 562.055 443.711 561.58C443.515 561.105 443.209 560.683 442.819 560.348C441.72 559.712 440.452 559.425 439.186 559.528H436.491V566.754Z" fill="white"/>
<path d="M458.013 574.917H449.068V558.55H458.013V559.605H450.201V565.816H457.506V566.753H450.24V573.746H458.052L458.013 574.917Z" fill="white"/>
<path d="M470.669 570.661C470.697 571.28 470.577 571.897 470.319 572.461C470.061 573.025 469.672 573.519 469.185 573.903C468.063 574.747 466.682 575.175 465.279 575.114C463.709 575.225 462.132 575.039 460.63 574.567V573.434C462.062 573.982 463.59 574.234 465.123 574.176C466.254 574.237 467.371 573.906 468.287 573.239C468.664 572.96 468.967 572.594 469.172 572.173C469.376 571.751 469.474 571.285 469.459 570.817C469.483 570.282 469.347 569.751 469.068 569.294C468.747 568.822 468.319 568.434 467.818 568.161C466.986 567.746 466.124 567.393 465.24 567.106C463.956 566.747 462.769 566.106 461.763 565.231C461.407 564.835 461.136 564.371 460.967 563.866C460.797 563.362 460.732 562.828 460.776 562.298C460.82 561.767 460.971 561.252 461.222 560.782C461.472 560.312 461.816 559.899 462.232 559.567C463.345 558.708 464.736 558.291 466.138 558.395C467.618 558.391 469.081 558.697 470.435 559.294L470.044 560.27C468.815 559.719 467.485 559.427 466.138 559.411C465.116 559.355 464.107 559.659 463.287 560.27C462.936 560.533 462.654 560.875 462.464 561.27C462.273 561.664 462.18 562.098 462.193 562.536C462.169 563.054 462.291 563.568 462.544 564.02C462.802 564.455 463.165 564.817 463.599 565.075C464.428 565.518 465.29 565.897 466.177 566.208C467.172 566.515 468.129 566.934 469.029 567.458C469.611 567.797 470.095 568.282 470.435 568.864C470.653 569.436 470.733 570.052 470.669 570.661Z" fill="white"/>
<path d="M478.367 574.917H477.234V559.644H471.922V558.55H483.641V559.644H478.367V574.917Z" fill="white"/>
<path d="M359.03 607.184V620.777H355.124V588.043H364.069C367.198 587.809 370.317 588.619 372.936 590.348C373.917 591.207 374.684 592.283 375.179 593.489C375.674 594.696 375.882 596 375.788 597.301C375.867 599.286 375.263 601.238 374.075 602.831C372.888 604.423 371.19 605.56 369.264 606.051L378.093 620.777H373.718L365.905 607.184H359.03ZM359.03 603.902H364.225C366.305 604.062 368.375 603.496 370.085 602.301C370.738 601.692 371.247 600.945 371.571 600.113C371.896 599.281 372.029 598.386 371.96 597.496C372.039 596.619 371.906 595.735 371.573 594.919C371.24 594.104 370.716 593.38 370.046 592.809C368.193 591.724 366.053 591.234 363.913 591.402H359.03V603.902Z" fill="white"/>
<path d="M403.991 620.778L400.085 610.387H386.843L382.937 620.778H379.03L391.921 587.926H395.124L407.937 620.778H403.991ZM398.757 606.95L394.851 596.793C394.323 595.243 393.88 593.665 393.522 592.067C393.171 593.512 392.702 595.075 392.116 596.793L388.21 606.95H398.757Z" fill="white"/>
<path d="M437.859 620.779H433.562L415.71 593.435C415.945 596.638 416.062 599.607 416.062 602.302V620.896H412.546V588.044H416.843L434.617 615.388C434.617 614.958 434.617 613.669 434.382 611.482C434.148 609.294 434.382 607.576 434.382 606.794V588.044H437.898L437.859 620.779Z" fill="white"/>
<path d="M461.18 603.629H472.274V619.528C470.553 620.095 468.79 620.526 467.001 620.817C464.943 621.103 462.867 621.234 460.79 621.207C458.634 621.362 456.469 621.047 454.446 620.285C452.423 619.523 450.589 618.332 449.071 616.793C446.229 613.319 444.831 608.886 445.165 604.411C445.091 601.307 445.789 598.233 447.196 595.465C448.52 592.971 450.561 590.93 453.055 589.606C455.85 588.195 458.95 587.497 462.079 587.575C465.416 587.56 468.723 588.211 471.805 589.489L470.321 592.848C467.637 591.657 464.741 591.019 461.805 590.973C460.093 590.883 458.382 591.153 456.78 591.765C455.179 592.377 453.724 593.318 452.509 594.528C450.148 597.261 448.943 600.805 449.149 604.411C448.89 608.05 450.052 611.649 452.391 614.45C453.636 615.656 455.122 616.586 456.751 617.178C458.38 617.771 460.116 618.012 461.844 617.887C464.081 617.885 466.309 617.623 468.485 617.106V607.028H461.18V603.629Z" fill="white"/>
<path d="M498.288 620.779H480.085V588.044H498.288V591.443H483.913V601.912H497.429V605.271H483.913V617.537H498.288V620.779Z" fill="white"/>
<path d="M509.302 607.184V620.777H505.396V588.043H514.615C517.744 587.809 520.863 588.619 523.482 590.348C524.462 591.207 525.23 592.283 525.725 593.489C526.219 594.696 526.428 596 526.333 597.301C526.42 599.287 525.819 601.243 524.63 602.837C523.441 604.432 521.739 605.567 519.81 606.051L528.638 620.777H524.029L516.216 607.184H509.302ZM509.302 603.902H514.615C516.707 604.071 518.793 603.505 520.513 602.301C521.174 601.696 521.689 600.95 522.021 600.118C522.352 599.286 522.491 598.389 522.427 597.496C522.506 596.619 522.374 595.735 522.041 594.919C521.708 594.104 521.184 593.38 520.513 592.809C518.662 591.72 516.521 591.229 514.38 591.402H509.302V603.902Z" fill="white"/>
<path d="M300.202 592.887C317.354 592.887 331.257 578.984 331.257 561.833C331.257 544.681 317.354 530.778 300.202 530.778C283.051 530.778 269.148 544.681 269.148 561.833C269.148 578.984 283.051 592.887 300.202 592.887Z" fill="white" fill-opacity="0.42"/>
<path d="M300.201 633.004H282.076V568.473L300.201 552.731V633.004Z" fill="#0A4A04"/>
<path d="M258.328 552.731L281.492 592.887L304.656 633.004H258.328H212L235.164 592.887L258.328 552.731Z" fill="white" fill-opacity="0.58"/>
<path d="M86.7091 677.605H88.3262C88.5489 679.55 90.4825 680.886 93.0606 680.886C95.5919 680.886 97.4083 679.468 97.4083 677.593C97.4083 676 96.2481 674.968 93.6348 674.324L91.7012 673.832C88.5255 673.046 87.1895 671.722 87.1895 669.425C87.1895 666.695 89.545 664.738 92.9786 664.738C96.213 664.738 98.6036 666.648 98.7794 669.226H97.1622C96.9044 667.421 95.2755 666.203 92.9317 666.203C90.5059 666.203 88.8301 667.539 88.8301 669.378C88.8301 670.855 89.8731 671.71 92.4512 672.355L94.127 672.777C97.6192 673.644 99.0489 675.027 99.0489 677.417C99.0489 680.371 96.6231 682.351 92.92 682.351C89.4278 682.351 86.9083 680.429 86.7091 677.605ZM102.389 682V669.378H103.854V671.652H104.006C104.557 670.105 105.904 669.167 107.65 669.167C109.42 669.167 110.686 670.14 111.225 671.652H111.377C112.022 670.14 113.498 669.167 115.315 669.167C117.846 669.167 119.311 670.691 119.311 673.363V682H117.775V673.714C117.775 671.652 116.756 670.55 114.857 670.55C112.912 670.55 111.611 672.039 111.611 673.996V682H110.076V673.55C110.076 671.734 108.916 670.55 107.17 670.55C105.342 670.55 103.924 672.191 103.924 674.253V682H102.389ZM126.928 680.851C129.19 680.851 130.912 679.304 130.912 677.3V675.824L127.174 676.093C125.029 676.246 123.998 677.042 123.998 678.484C123.998 679.937 125.229 680.851 126.928 680.851ZM126.67 682.21C124.197 682.21 122.416 680.769 122.416 678.507C122.416 676.304 124.045 675.027 126.963 674.828L130.912 674.57V673.351C130.912 671.546 129.822 670.539 127.772 670.539C126.037 670.539 124.783 671.277 124.479 672.496H122.92C123.213 670.492 125.17 669.167 127.818 669.167C130.783 669.167 132.459 670.714 132.459 673.339V682H130.982V679.832H130.842C130.068 681.332 128.522 682.21 126.67 682.21ZM136.35 682V669.378H137.815V671.453H137.967C138.389 670.082 139.807 669.167 141.482 669.167C141.904 669.167 142.326 669.191 142.666 669.273V670.808C142.385 670.726 141.752 670.656 141.295 670.656C139.338 670.656 137.885 672.132 137.885 674.125V682H136.35ZM146.709 666.097H148.244V669.378H151.162V670.679H148.244V678.507C148.244 680.054 148.83 680.71 150.248 680.71C150.494 680.71 150.904 680.699 151.162 680.675V681.988C150.893 682.035 150.354 682.07 150.084 682.07C147.67 682.07 146.709 681.156 146.709 678.859V670.679H144.647V669.378H146.709V666.097ZM177.377 682H175.877V668.207H175.76L169.924 681.917H168.529L162.693 668.207H162.588V682H161.076V665.089H162.916L169.162 679.808H169.303L175.525 665.089H177.377V682ZM186.635 682.21C183.107 682.21 180.904 679.714 180.904 675.683C180.904 671.652 183.107 669.167 186.635 669.167C190.162 669.167 192.377 671.652 192.377 675.683C192.377 679.714 190.162 682.21 186.635 682.21ZM186.635 680.816C189.236 680.816 190.783 678.882 190.783 675.683C190.783 672.484 189.236 670.55 186.635 670.55C184.033 670.55 182.486 672.484 182.486 675.683C182.486 678.882 184.033 680.816 186.635 680.816ZM195.693 682V669.378H197.158V671.652H197.311C197.979 670.093 199.373 669.167 201.389 669.167C204.201 669.167 205.807 670.855 205.807 673.796V682H204.272V674.183C204.272 671.781 203.17 670.55 200.979 670.55C198.752 670.55 197.229 672.121 197.229 674.5V682H195.693ZM209.732 682V669.378H211.268V682H209.732ZM210.494 666.566C209.873 666.566 209.357 666.05 209.357 665.417C209.357 664.796 209.873 664.281 210.494 664.281C211.127 664.281 211.643 664.796 211.643 665.417C211.643 666.05 211.127 666.566 210.494 666.566ZM216.084 666.097H217.619V669.378H220.537V670.679H217.619V678.507C217.619 680.054 218.205 680.71 219.623 680.71C219.869 680.71 220.279 680.699 220.537 680.675V681.988C220.268 682.035 219.729 682.07 219.459 682.07C217.045 682.07 216.084 681.156 216.084 678.859V670.679H214.022V669.378H216.084V666.097ZM228.635 682.21C225.107 682.21 222.904 679.714 222.904 675.683C222.904 671.652 225.107 669.167 228.635 669.167C232.162 669.167 234.377 671.652 234.377 675.683C234.377 679.714 232.162 682.21 228.635 682.21ZM228.635 680.816C231.236 680.816 232.783 678.882 232.783 675.683C232.783 672.484 231.236 670.55 228.635 670.55C226.033 670.55 224.486 672.484 224.486 675.683C224.486 678.882 226.033 680.816 228.635 680.816ZM237.693 682V669.378H239.158V671.453H239.311C239.732 670.082 241.15 669.167 242.826 669.167C243.248 669.167 243.67 669.191 244.01 669.273V670.808C243.729 670.726 243.096 670.656 242.639 670.656C240.682 670.656 239.229 672.132 239.229 674.125V682H237.693ZM246.717 682V669.378H248.252V682H246.717ZM247.479 666.566C246.857 666.566 246.342 666.05 246.342 665.417C246.342 664.796 246.857 664.281 247.479 664.281C248.111 664.281 248.627 664.796 248.627 665.417C248.627 666.05 248.111 666.566 247.479 666.566ZM252.272 682V669.378H253.736V671.652H253.889C254.557 670.093 255.951 669.167 257.967 669.167C260.779 669.167 262.385 670.855 262.385 673.796V682H260.85V674.183C260.85 671.781 259.748 670.55 257.557 670.55C255.33 670.55 253.807 672.121 253.807 674.5V682H252.272ZM271.232 680.5C273.764 680.5 275.334 678.542 275.334 675.554C275.334 672.554 273.729 670.55 271.232 670.55C268.713 670.55 267.19 672.531 267.19 675.531C267.19 678.519 268.713 680.5 271.232 680.5ZM271.361 686.734C268.467 686.734 266.545 685.445 266.217 683.476H267.846C268.127 684.636 269.44 685.386 271.361 685.386C273.799 685.386 275.311 684.109 275.311 682.07V679.234H275.158C274.408 680.898 272.861 681.871 270.928 681.871C267.682 681.871 265.607 679.316 265.607 675.531C265.607 671.746 267.693 669.167 270.928 669.167C272.861 669.167 274.537 670.234 275.229 671.875H275.369V669.378H276.846V682.187C276.846 684.929 274.678 686.734 271.361 686.734ZM292.385 682.21C288.857 682.21 286.654 679.714 286.654 675.683C286.654 671.652 288.857 669.167 292.385 669.167C295.912 669.167 298.127 671.652 298.127 675.683C298.127 679.714 295.912 682.21 292.385 682.21ZM292.385 680.816C294.986 680.816 296.533 678.882 296.533 675.683C296.533 672.484 294.986 670.55 292.385 670.55C289.783 670.55 288.236 672.484 288.236 675.683C288.236 678.882 289.783 680.816 292.385 680.816ZM302.287 682V670.679H300.19V669.378H302.287V667.761C302.287 665.417 303.482 664.234 305.674 664.234C306.143 664.234 306.529 664.269 306.916 664.351V665.617C306.67 665.57 306.33 665.546 305.967 665.546C304.514 665.546 303.822 666.332 303.822 667.796V669.378H306.799V670.679H303.822V682H302.287ZM318.143 682H316.537V665.089H326.568V666.542H318.143V672.894H325.889V674.324H318.143V682ZM334.994 682.21C331.467 682.21 329.264 679.714 329.264 675.683C329.264 671.652 331.467 669.167 334.994 669.167C338.522 669.167 340.736 671.652 340.736 675.683C340.736 679.714 338.522 682.21 334.994 682.21ZM334.994 680.816C337.596 680.816 339.143 678.882 339.143 675.683C339.143 672.484 337.596 670.55 334.994 670.55C332.393 670.55 330.846 672.484 330.846 675.683C330.846 678.882 332.393 680.816 334.994 680.816ZM344.053 682V669.378H345.518V671.453H345.67C346.092 670.082 347.51 669.167 349.186 669.167C349.607 669.167 350.029 669.191 350.369 669.273V670.808C350.088 670.726 349.455 670.656 348.998 670.656C347.041 670.656 345.588 672.132 345.588 674.125V682H344.053ZM357.6 670.527C355.303 670.527 353.709 672.226 353.568 674.828H361.432C361.397 672.226 359.885 670.527 357.6 670.527ZM361.279 678.882H362.838C362.217 680.933 360.272 682.21 357.623 682.21C354.154 682.21 351.975 679.679 351.975 675.695C351.975 671.734 354.178 669.167 357.611 669.167C360.975 669.167 363.037 671.558 363.037 675.414V676.093H353.557V676.164C353.639 679.011 355.221 680.839 357.658 680.839C359.451 680.839 360.74 680.125 361.279 678.882ZM366.072 672.718C366.072 670.691 368.088 669.167 370.631 669.167C373.174 669.167 374.979 670.433 375.26 672.437H373.748C373.467 671.253 372.295 670.48 370.619 670.48C368.967 670.48 367.619 671.394 367.619 672.66C367.619 673.703 368.44 674.3 370.127 674.699L371.861 675.109C374.299 675.695 375.482 676.679 375.482 678.507C375.482 680.687 373.361 682.21 370.607 682.21C367.854 682.21 365.943 680.91 365.686 678.835H367.279C367.619 680.101 368.826 680.898 370.654 680.898C372.506 680.898 373.9 679.949 373.9 678.625C373.9 677.523 373.115 676.878 371.428 676.48L369.518 676.023C367.174 675.46 366.072 674.5 366.072 672.718ZM379.467 666.097H381.002V669.378H383.92V670.679H381.002V678.507C381.002 680.054 381.588 680.71 383.006 680.71C383.252 680.71 383.662 680.699 383.92 680.675V681.988C383.65 682.035 383.111 682.07 382.842 682.07C380.428 682.07 379.467 681.156 379.467 678.859V670.679H377.404V669.378H379.467V666.097ZM386.58 672.718C386.58 670.691 388.596 669.167 391.139 669.167C393.682 669.167 395.486 670.433 395.768 672.437H394.256C393.975 671.253 392.803 670.48 391.127 670.48C389.475 670.48 388.127 671.394 388.127 672.66C388.127 673.703 388.947 674.3 390.635 674.699L392.369 675.109C394.807 675.695 395.99 676.679 395.99 678.507C395.99 680.687 393.869 682.21 391.115 682.21C388.361 682.21 386.451 680.91 386.193 678.835H387.787C388.127 680.101 389.334 680.898 391.162 680.898C393.014 680.898 394.408 679.949 394.408 678.625C394.408 677.523 393.623 676.878 391.936 676.48L390.025 676.023C387.682 675.46 386.58 674.5 386.58 672.718ZM418.232 682L416.381 680.031C414.928 681.449 412.854 682.292 410.768 682.292C407.486 682.292 405.213 680.335 405.213 677.582C405.213 675.671 406.256 674.183 408.506 672.988C408.611 672.929 409.279 672.589 409.408 672.519C407.674 670.738 407.1 669.671 407.1 668.429C407.1 666.332 408.904 664.75 411.295 664.75C413.686 664.75 415.443 666.296 415.443 668.429C415.443 670.117 414.365 671.429 411.6 672.847L416.287 677.851C416.967 676.644 417.365 675.062 417.365 673.128V672.589H418.865V673.128C418.865 675.46 418.315 677.464 417.342 678.929L420.248 682H418.232ZM409.432 673.96C407.674 674.875 406.807 676.117 406.807 677.488C406.807 679.48 408.459 680.921 410.897 680.921C412.561 680.921 414.365 680.16 415.408 679.011L410.299 673.515C410.217 673.55 409.549 673.902 409.432 673.96ZM410.721 671.933C413.041 670.773 413.932 669.753 413.932 668.488C413.932 667.07 412.818 666.039 411.295 666.039C409.795 666.039 408.635 667.105 408.635 668.511C408.635 669.507 409.139 670.339 410.721 671.933ZM436.467 682.351C431.873 682.351 429.014 678.976 429.014 673.55C429.014 668.125 431.873 664.738 436.455 664.738C439.936 664.738 442.748 667.046 443.205 670.257H441.576C441.084 667.867 438.998 666.226 436.455 666.226C432.916 666.226 430.654 669.074 430.654 673.55C430.654 678.027 432.904 680.863 436.467 680.863C439.08 680.863 441.107 679.41 441.576 677.183H443.205C442.725 680.289 440.053 682.351 436.467 682.351ZM451.666 682.21C448.139 682.21 445.936 679.714 445.936 675.683C445.936 671.652 448.139 669.167 451.666 669.167C455.193 669.167 457.408 671.652 457.408 675.683C457.408 679.714 455.193 682.21 451.666 682.21ZM451.666 680.816C454.268 680.816 455.815 678.882 455.815 675.683C455.815 672.484 454.268 670.55 451.666 670.55C449.065 670.55 447.518 672.484 447.518 675.683C447.518 678.882 449.065 680.816 451.666 680.816ZM460.725 682V669.378H462.19V671.652H462.342C462.893 670.105 464.24 669.167 465.986 669.167C467.756 669.167 469.022 670.14 469.561 671.652H469.713C470.357 670.14 471.834 669.167 473.65 669.167C476.182 669.167 477.647 670.691 477.647 673.363V682H476.111V673.714C476.111 671.652 475.092 670.55 473.193 670.55C471.248 670.55 469.947 672.039 469.947 673.996V682H468.412V673.55C468.412 671.734 467.252 670.55 465.506 670.55C463.678 670.55 462.26 672.191 462.26 674.253V682H460.725ZM481.49 682V669.378H482.955V671.652H483.107C483.658 670.105 485.006 669.167 486.752 669.167C488.522 669.167 489.787 670.14 490.326 671.652H490.479C491.123 670.14 492.6 669.167 494.416 669.167C496.947 669.167 498.412 670.691 498.412 673.363V682H496.877V673.714C496.877 671.652 495.857 670.55 493.959 670.55C492.014 670.55 490.713 672.039 490.713 673.996V682H489.178V673.55C489.178 671.734 488.018 670.55 486.272 670.55C484.443 670.55 483.025 672.191 483.025 674.253V682H481.49ZM512.275 669.378V682H510.811V679.726H510.67C510.037 681.296 508.572 682.21 506.557 682.21C503.744 682.21 502.15 680.476 502.15 677.582V669.378H503.686V677.195C503.686 679.55 504.787 680.804 506.955 680.804C509.311 680.804 510.74 679.269 510.74 676.878V669.378H512.275ZM516.248 682V669.378H517.713V671.652H517.865C518.533 670.093 519.928 669.167 521.943 669.167C524.756 669.167 526.361 670.855 526.361 673.796V682H524.826V674.183C524.826 671.781 523.725 670.55 521.533 670.55C519.307 670.55 517.783 672.121 517.783 674.5V682H516.248ZM530.287 682V669.378H531.822V682H530.287ZM531.049 666.566C530.428 666.566 529.912 666.05 529.912 665.417C529.912 664.796 530.428 664.281 531.049 664.281C531.682 664.281 532.197 664.796 532.197 665.417C532.197 666.05 531.682 666.566 531.049 666.566ZM536.639 666.097H538.174V669.378H541.092V670.679H538.174V678.507C538.174 680.054 538.76 680.71 540.178 680.71C540.424 680.71 540.834 680.699 541.092 680.675V681.988C540.822 682.035 540.283 682.07 540.014 682.07C537.6 682.07 536.639 681.156 536.639 678.859V670.679H534.576V669.378H536.639V666.097ZM544.397 682V669.378H545.932V682H544.397ZM545.158 666.566C544.537 666.566 544.022 666.05 544.022 665.417C544.022 664.796 544.537 664.281 545.158 664.281C545.791 664.281 546.307 664.796 546.307 665.417C546.307 666.05 545.791 666.566 545.158 666.566ZM554.943 670.527C552.647 670.527 551.053 672.226 550.912 674.828H558.775C558.74 672.226 557.229 670.527 554.943 670.527ZM558.623 678.882H560.182C559.561 680.933 557.615 682.21 554.967 682.21C551.498 682.21 549.318 679.679 549.318 675.695C549.318 671.734 551.522 669.167 554.955 669.167C558.318 669.167 560.381 671.558 560.381 675.414V676.093H550.9V676.164C550.982 679.011 552.565 680.839 555.002 680.839C556.795 680.839 558.084 680.125 558.623 678.882ZM563.416 672.718C563.416 670.691 565.432 669.167 567.975 669.167C570.518 669.167 572.322 670.433 572.604 672.437H571.092C570.811 671.253 569.639 670.48 567.963 670.48C566.311 670.48 564.963 671.394 564.963 672.66C564.963 673.703 565.783 674.3 567.471 674.699L569.205 675.109C571.643 675.695 572.826 676.679 572.826 678.507C572.826 680.687 570.705 682.21 567.951 682.21C565.197 682.21 563.287 680.91 563.029 678.835H564.623C564.963 680.101 566.17 680.898 567.998 680.898C569.85 680.898 571.244 679.949 571.244 678.625C571.244 677.523 570.459 676.878 568.772 676.48L566.861 676.023C564.518 675.46 563.416 674.5 563.416 672.718ZM598.186 669.378L594.588 682H592.959L589.854 671.523H589.701L586.596 682H584.979L581.404 669.378H582.963L585.764 680.089H585.904L589.022 669.378H590.557L593.674 680.089H593.815L596.639 669.378H598.186ZM601.022 682V669.378H602.557V682H601.022ZM601.783 666.566C601.162 666.566 600.647 666.05 600.647 665.417C600.647 664.796 601.162 664.281 601.783 664.281C602.416 664.281 602.932 664.796 602.932 665.417C602.932 666.05 602.416 666.566 601.783 666.566ZM607.373 666.097H608.908V669.378H611.826V670.679H608.908V678.507C608.908 680.054 609.494 680.71 610.912 680.71C611.158 680.71 611.568 680.699 611.826 680.675V681.988C611.557 682.035 611.018 682.07 610.748 682.07C608.334 682.07 607.373 681.156 607.373 678.859V670.679H605.311V669.378H607.373V666.097ZM615.178 682V664.351H616.713V671.652H616.854C617.533 670.093 618.986 669.167 621.002 669.167C623.697 669.167 625.385 670.878 625.385 673.796V682H623.85V674.183C623.85 671.804 622.701 670.55 620.592 670.55C618.201 670.55 616.713 672.179 616.713 674.5V682H615.178ZM647.17 682L645.295 676.82H638.193L636.318 682H634.619L640.947 665.089H642.541L648.857 682H647.17ZM641.662 667.187L638.674 675.437H644.815L641.815 667.187H641.662ZM653.51 682H651.904V665.089H653.51V682ZM304.174 706.605H305.791C306.014 708.55 307.947 709.886 310.525 709.886C313.057 709.886 314.873 708.468 314.873 706.593C314.873 705 313.713 703.968 311.1 703.324L309.166 702.832C305.99 702.046 304.654 700.722 304.654 698.425C304.654 695.695 307.01 693.738 310.443 693.738C313.678 693.738 316.068 695.648 316.244 698.226H314.627C314.369 696.421 312.74 695.203 310.397 695.203C307.971 695.203 306.295 696.539 306.295 698.378C306.295 699.855 307.338 700.71 309.916 701.355L311.592 701.777C315.084 702.644 316.514 704.027 316.514 706.417C316.514 709.371 314.088 711.351 310.385 711.351C306.893 711.351 304.373 709.429 304.174 706.605ZM329.873 698.378V711H328.408V708.726H328.268C327.635 710.296 326.17 711.21 324.154 711.21C321.342 711.21 319.748 709.476 319.748 706.582V698.378H321.283V706.195C321.283 708.55 322.385 709.804 324.553 709.804C326.908 709.804 328.338 708.269 328.338 705.878V698.378H329.873ZM333.846 711V698.378H335.311V700.453H335.463C335.885 699.082 337.303 698.167 338.979 698.167C339.4 698.167 339.822 698.191 340.162 698.273V699.808C339.881 699.726 339.248 699.656 338.791 699.656C336.834 699.656 335.381 701.132 335.381 703.125V711H333.846ZM352.666 698.378L347.955 711H346.315L341.604 698.378H343.244L347.065 709.324H347.205L351.014 698.378H352.666ZM359.979 699.527C357.682 699.527 356.088 701.226 355.947 703.828H363.811C363.775 701.226 362.264 699.527 359.979 699.527ZM363.658 707.882H365.217C364.596 709.933 362.65 711.21 360.002 711.21C356.533 711.21 354.354 708.679 354.354 704.695C354.354 700.734 356.557 698.167 359.99 698.167C363.354 698.167 365.416 700.558 365.416 704.414V705.093H355.936V705.164C356.018 708.011 357.6 709.839 360.037 709.839C361.83 709.839 363.119 709.125 363.658 707.882ZM368.815 711V698.378H370.35V711H368.815ZM369.576 695.566C368.955 695.566 368.44 695.05 368.44 694.417C368.44 693.796 368.955 693.281 369.576 693.281C370.209 693.281 370.725 693.796 370.725 694.417C370.725 695.05 370.209 695.566 369.576 695.566ZM374.486 711V693.351H376.022V711H374.486ZM380.229 711V693.351H381.764V711H380.229ZM389.627 709.851C391.889 709.851 393.611 708.304 393.611 706.3V704.824L389.873 705.093C387.729 705.246 386.697 706.042 386.697 707.484C386.697 708.937 387.928 709.851 389.627 709.851ZM389.369 711.21C386.897 711.21 385.115 709.769 385.115 707.507C385.115 705.304 386.744 704.027 389.662 703.828L393.611 703.57V702.351C393.611 700.546 392.522 699.539 390.471 699.539C388.736 699.539 387.482 700.277 387.178 701.496H385.619C385.912 699.492 387.869 698.167 390.518 698.167C393.482 698.167 395.158 699.714 395.158 702.339V711H393.682V708.832H393.541C392.768 710.332 391.221 711.21 389.369 711.21ZM399.049 711V698.378H400.514V700.652H400.666C401.334 699.093 402.729 698.167 404.744 698.167C407.557 698.167 409.162 699.855 409.162 702.796V711H407.627V703.183C407.627 700.781 406.525 699.55 404.334 699.55C402.107 699.55 400.584 701.121 400.584 703.5V711H399.049ZM423.248 702.093H421.69C421.303 700.64 420.002 699.55 418.068 699.55C415.561 699.55 413.967 701.531 413.967 704.648C413.967 707.8 415.572 709.816 418.068 709.816C419.932 709.816 421.291 708.914 421.678 707.367H423.236C422.85 709.628 420.963 711.21 418.08 711.21C414.6 711.21 412.385 708.656 412.385 704.648C412.385 700.699 414.588 698.167 418.068 698.167C420.963 698.167 422.873 699.89 423.248 702.093ZM431.44 699.527C429.143 699.527 427.549 701.226 427.408 703.828H435.272C435.236 701.226 433.725 699.527 431.44 699.527ZM435.119 707.882H436.678C436.057 709.933 434.111 711.21 431.463 711.21C427.994 711.21 425.815 708.679 425.815 704.695C425.815 700.734 428.018 698.167 431.451 698.167C434.815 698.167 436.877 700.558 436.877 704.414V705.093H427.397V705.164C427.479 708.011 429.061 709.839 431.498 709.839C433.291 709.839 434.58 709.125 435.119 707.882Z" fill="white"/>
<g filter="url(#filter5_i_9461_902)">
<rect width="9.92233" height="215.976" transform="matrix(0.866025 -0.5 2.20305e-08 1 655.166 802.494)" fill="url(#paint6_radial_9461_902)"/>
</g>
<g filter="url(#filter6_i_9461_902)">
<rect width="9.92233" height="172.237" transform="matrix(0.866025 -0.5 0.866025 0.5 506 716.5)" fill="url(#paint7_radial_9461_902)"/>
</g>
<g filter="url(#filter7_i_9461_902)">
<rect width="9.92233" height="215.976" transform="matrix(0.866025 -0.5 2.20305e-08 1 740.828 885.18)" fill="url(#paint8_radial_9461_902)"/>
</g>
<g filter="url(#filter8_i_9461_902)">
<rect width="9.92233" height="172.237" transform="matrix(0.866025 -0.5 0.866025 0.5 591.663 799.187)" fill="url(#paint9_radial_9461_902)"/>
</g>
<g clip-path="url(#clip1_9461_902)" filter="url(#filter9_i_9461_902)">
<rect width="172.318" height="215.976" transform="matrix(0.866025 0.5 -2.20305e-08 1 506 716.5)" fill="url(#paint10_radial_9461_902)"/>
</g>
<defs>
<filter id="filter0_i_9461_902" x="75.6486" y="240.787" width="57.2083" height="307.8" filterUnits="userSpaceOnUse" color-interpolation-filters="sRGB">
<feFlood flood-opacity="0" result="BackgroundImageFix"/>
<feBlend mode="normal" in="SourceGraphic" in2="BackgroundImageFix" result="shape"/>
<feColorMatrix in="SourceAlpha" type="matrix" values="0 0 0 0 0 0 0 0 0 0 0 0 0 0 0 0 0 0 127 0" result="hardAlpha"/>
<feOffset dx="-2.8125" dy="-2.8125"/>
<feGaussianBlur stdDeviation="70.3125"/>
<feComposite in2="hardAlpha" operator="arithmetic" k2="-1" k3="1"/>
<feColorMatrix type="matrix" values="0 0 0 0 1 0 0 0 0 1 0 0 0 0 1 0 0 0 0.02 0"/>
<feBlend mode="normal" in2="shape" result="effect1_innerShadow_9461_902"/>
</filter>
<filter id="filter1_i_9461_902" x="75.653" y="139.375" width="230.07" height="154.66" filterUnits="userSpaceOnUse" color-interpolation-filters="sRGB">
<feFlood flood-opacity="0" result="BackgroundImageFix"/>
<feBlend mode="normal" in="SourceGraphic" in2="BackgroundImageFix" result="shape"/>
<feColorMatrix in="SourceAlpha" type="matrix" values="0 0 0 0 0 0 0 0 0 0 0 0 0 0 0 0 0 0 127 0" result="hardAlpha"/>
<feOffset dx="-2.8125" dy="-2.8125"/>
<feGaussianBlur stdDeviation="70.3125"/>
<feComposite in2="hardAlpha" operator="arithmetic" k2="-1" k3="1"/>
<feColorMatrix type="matrix" values="0 0 0 0 1 0 0 0 0 1 0 0 0 0 1 0 0 0 0.02 0"/>
<feBlend mode="normal" in2="shape" result="effect1_innerShadow_9461_902"/>
</filter>
<filter id="filter2_i_9461_902" x="-23.625" y="338.298" width="57.2083" height="307.8" filterUnits="userSpaceOnUse" color-interpolation-filters="sRGB">
<feFlood flood-opacity="0" result="BackgroundImageFix"/>
<feBlend mode="normal" in="SourceGraphic" in2="BackgroundImageFix" result="shape"/>
<feColorMatrix in="SourceAlpha" type="matrix" values="0 0 0 0 0 0 0 0 0 0 0 0 0 0 0 0 0 0 127 0" result="hardAlpha"/>
<feOffset dx="-2.8125" dy="-2.8125"/>
<feGaussianBlur stdDeviation="70.3125"/>
<feComposite in2="hardAlpha" operator="arithmetic" k2="-1" k3="1"/>
<feColorMatrix type="matrix" values="0 0 0 0 1 0 0 0 0 1 0 0 0 0 1 0 0 0 0.02 0"/>
<feBlend mode="normal" in2="shape" result="effect1_innerShadow_9461_902"/>
</filter>
<filter id="filter3_i_9461_902" x="-23.6206" y="236.887" width="230.07" height="154.66" filterUnits="userSpaceOnUse" color-interpolation-filters="sRGB">
<feFlood flood-opacity="0" result="BackgroundImageFix"/>
<feBlend mode="normal" in="SourceGraphic" in2="BackgroundImageFix" result="shape"/>
<feColorMatrix in="SourceAlpha" type="matrix" values="0 0 0 0 0 0 0 0 0 0 0 0 0 0 0 0 0 0 127 0" result="hardAlpha"/>
<feOffset dx="-2.8125" dy="-2.8125"/>
<feGaussianBlur stdDeviation="70.3125"/>
<feComposite in2="hardAlpha" operator="arithmetic" k2="-1" k3="1"/>
<feColorMatrix type="matrix" values="0 0 0 0 1 0 0 0 0 1 0 0 0 0 1 0 0 0 0.02 0"/>
<feBlend mode="normal" in2="shape" result="effect1_innerShadow_9461_902"/>
</filter>
<filter id="filter4_i_9461_902" x="85.5305" y="145.226" width="220.193" height="403.557" filterUnits="userSpaceOnUse" color-interpolation-filters="sRGB">
<feFlood flood-opacity="0" result="BackgroundImageFix"/>
<feBlend mode="normal" in="SourceGraphic" in2="BackgroundImageFix" result="shape"/>
<feColorMatrix in="SourceAlpha" type="matrix" values="0 0 0 0 0 0 0 0 0 0 0 0 0 0 0 0 0 0 127 0" result="hardAlpha"/>
<feOffset dx="-2.8125" dy="-2.8125"/>
<feGaussianBlur stdDeviation="70.3125"/>
<feComposite in2="hardAlpha" operator="arithmetic" k2="-1" k3="1"/>
<feColorMatrix type="matrix" values="0 0 0 0 1 0 0 0 0 1 0 0 0 0 1 0 0 0 0.02 0"/>
<feBlend mode="normal" in2="shape" result="effect1_innerShadow_9461_902"/>
</filter>
<filter id="filter5_i_9461_902" x="631.541" y="773.908" width="55.843" height="268.187" filterUnits="userSpaceOnUse" color-interpolation-filters="sRGB">
<feFlood flood-opacity="0" result="BackgroundImageFix"/>
<feBlend mode="normal" in="SourceGraphic" in2="BackgroundImageFix" result="shape"/>
<feColorMatrix in="SourceAlpha" type="matrix" values="0 0 0 0 0 0 0 0 0 0 0 0 0 0 0 0 0 0 127 0" result="hardAlpha"/>
<feOffset dx="-2.8125" dy="-2.8125"/>
<feGaussianBlur stdDeviation="70.3125"/>
<feComposite in2="hardAlpha" operator="arithmetic" k2="-1" k3="1"/>
<feColorMatrix type="matrix" values="0 0 0 0 1 0 0 0 0 1 0 0 0 0 1 0 0 0 0.02 0"/>
<feBlend mode="normal" in2="shape" result="effect1_innerShadow_9461_902"/>
</filter>
<filter id="filter6_i_9461_902" x="482.375" y="687.915" width="205.005" height="138.33" filterUnits="userSpaceOnUse" color-interpolation-filters="sRGB">
<feFlood flood-opacity="0" result="BackgroundImageFix"/>
<feBlend mode="normal" in="SourceGraphic" in2="BackgroundImageFix" result="shape"/>
<feColorMatrix in="SourceAlpha" type="matrix" values="0 0 0 0 0 0 0 0 0 0 0 0 0 0 0 0 0 0 127 0" result="hardAlpha"/>
<feOffset dx="-2.8125" dy="-2.8125"/>
<feGaussianBlur stdDeviation="70.3125"/>
<feComposite in2="hardAlpha" operator="arithmetic" k2="-1" k3="1"/>
<feColorMatrix type="matrix" values="0 0 0 0 1 0 0 0 0 1 0 0 0 0 1 0 0 0 0.02 0"/>
<feBlend mode="normal" in2="shape" result="effect1_innerShadow_9461_902"/>
</filter>
<filter id="filter7_i_9461_902" x="717.203" y="856.594" width="55.843" height="268.187" filterUnits="userSpaceOnUse" color-interpolation-filters="sRGB">
<feFlood flood-opacity="0" result="BackgroundImageFix"/>
<feBlend mode="normal" in="SourceGraphic" in2="BackgroundImageFix" result="shape"/>
<feColorMatrix in="SourceAlpha" type="matrix" values="0 0 0 0 0 0 0 0 0 0 0 0 0 0 0 0 0 0 127 0" result="hardAlpha"/>
<feOffset dx="-2.8125" dy="-2.8125"/>
<feGaussianBlur stdDeviation="70.3125"/>
<feComposite in2="hardAlpha" operator="arithmetic" k2="-1" k3="1"/>
<feColorMatrix type="matrix" values="0 0 0 0 1 0 0 0 0 1 0 0 0 0 1 0 0 0 0.02 0"/>
<feBlend mode="normal" in2="shape" result="effect1_innerShadow_9461_902"/>
</filter>
<filter id="filter8_i_9461_902" x="568.038" y="770.601" width="205.005" height="138.33" filterUnits="userSpaceOnUse" color-interpolation-filters="sRGB">
<feFlood flood-opacity="0" result="BackgroundImageFix"/>
<feBlend mode="normal" in="SourceGraphic" in2="BackgroundImageFix" result="shape"/>
<feColorMatrix in="SourceAlpha" type="matrix" values="0 0 0 0 0 0 0 0 0 0 0 0 0 0 0 0 0 0 127 0" result="hardAlpha"/>
<feOffset dx="-2.8125" dy="-2.8125"/>
<feGaussianBlur stdDeviation="70.3125"/>
<feComposite in2="hardAlpha" operator="arithmetic" k2="-1" k3="1"/>
<feColorMatrix type="matrix" values="0 0 0 0 1 0 0 0 0 1 0 0 0 0 1 0 0 0 0.02 0"/>
<feBlend mode="normal" in2="shape" result="effect1_innerShadow_9461_902"/>
</filter>
<filter id="filter9_i_9461_902" x="482.375" y="692.875" width="196.482" height="349.385" filterUnits="userSpaceOnUse" color-interpolation-filters="sRGB">
<feFlood flood-opacity="0" result="BackgroundImageFix"/>
<feBlend mode="normal" in="SourceGraphic" in2="BackgroundImageFix" result="shape"/>
<feColorMatrix in="SourceAlpha" type="matrix" values="0 0 0 0 0 0 0 0 0 0 0 0 0 0 0 0 0 0 127 0" result="hardAlpha"/>
<feOffset dx="-2.8125" dy="-2.8125"/>
<feGaussianBlur stdDeviation="70.3125"/>
<feComposite in2="hardAlpha" operator="arithmetic" k2="-1" k3="1"/>
<feColorMatrix type="matrix" values="0 0 0 0 1 0 0 0 0 1 0 0 0 0 1 0 0 0 0.02 0"/>
<feBlend mode="normal" in2="shape" result="effect1_innerShadow_9461_902"/>
</filter>
<linearGradient id="paint0_linear_9461_902" x1="379.5" y1="163" x2="379.5" y2="1063" gradientUnits="userSpaceOnUse">
<stop offset="0.33" stop-color="#429180"/>
<stop offset="1" stop-color="#65CD94"/>
</linearGradient>
<radialGradient id="paint1_radial_9461_902" cx="0" cy="0" r="1" gradientUnits="userSpaceOnUse" gradientTransform="rotate(87.4036) scale(254.961 16.0341)">
<stop stop-color="white" stop-opacity="0.4"/>
<stop offset="1" stop-color="white" stop-opacity="0"/>
</radialGradient>
<radialGradient id="paint2_radial_9461_902" cx="0" cy="0" r="1" gradientUnits="userSpaceOnUse" gradientTransform="rotate(86.7029) scale(200.821 16.024)">
<stop stop-color="white" stop-opacity="0.4"/>
<stop offset="1" stop-color="white" stop-opacity="0"/>
</radialGradient>
<radialGradient id="paint3_radial_9461_902" cx="0" cy="0" r="1" gradientUnits="userSpaceOnUse" gradientTransform="rotate(87.4036) scale(254.961 16.0341)">
<stop stop-color="white" stop-opacity="0.4"/>
<stop offset="1" stop-color="white" stop-opacity="0"/>
</radialGradient>
<radialGradient id="paint4_radial_9461_902" cx="0" cy="0" r="1" gradientUnits="userSpaceOnUse" gradientTransform="rotate(86.7029) scale(200.821 16.024)">
<stop stop-color="white" stop-opacity="0.4"/>
<stop offset="1" stop-color="white" stop-opacity="0"/>
</radialGradient>
<radialGradient id="paint5_radial_9461_902" cx="0" cy="0" r="1" gradientUnits="userSpaceOnUse" gradientTransform="rotate(51.7787) scale(324.199 218.989)">
<stop stop-color="white" stop-opacity="0.4"/>
<stop offset="1" stop-color="white" stop-opacity="0"/>
</radialGradient>
<radialGradient id="paint6_radial_9461_902" cx="0" cy="0" r="1" gradientUnits="userSpaceOnUse" gradientTransform="rotate(87.3696) scale(216.204 13.7743)">
<stop stop-color="white" stop-opacity="0.4"/>
<stop offset="1" stop-color="white" stop-opacity="0"/>
</radialGradient>
<radialGradient id="paint7_radial_9461_902" cx="0" cy="0" r="1" gradientUnits="userSpaceOnUse" gradientTransform="rotate(86.7029) scale(172.523 13.766)">
<stop stop-color="white" stop-opacity="0.4"/>
<stop offset="1" stop-color="white" stop-opacity="0"/>
</radialGradient>
<radialGradient id="paint8_radial_9461_902" cx="0" cy="0" r="1" gradientUnits="userSpaceOnUse" gradientTransform="rotate(87.3696) scale(216.204 13.7743)">
<stop stop-color="white" stop-opacity="0.4"/>
<stop offset="1" stop-color="white" stop-opacity="0"/>
</radialGradient>
<radialGradient id="paint9_radial_9461_902" cx="0" cy="0" r="1" gradientUnits="userSpaceOnUse" gradientTransform="rotate(86.7029) scale(172.523 13.766)">
<stop stop-color="white" stop-opacity="0.4"/>
<stop offset="1" stop-color="white" stop-opacity="0"/>
</radialGradient>
<radialGradient id="paint10_radial_9461_902" cx="0" cy="0" r="1" gradientUnits="userSpaceOnUse" gradientTransform="rotate(51.4152) scale(276.295 187.187)">
<stop stop-color="white" stop-opacity="0.4"/>
<stop offset="1" stop-color="white" stop-opacity="0"/>
</radialGradient>
<clipPath id="clip0_9461_902">
<rect width="200.582" height="254.7" fill="white" transform="matrix(-0.862205 0.50656 2.16493e-08 1 282.098 168.851)"/>
</clipPath>
<clipPath id="clip1_9461_902">
<rect width="172.318" height="215.976" fill="white" transform="matrix(0.866025 0.5 -2.20305e-08 1 506 716.5)"/>
</clipPath>
</defs>
</svg>
