<svg width="28" height="28" viewBox="0 0 28 28" fill="none" xmlns="http://www.w3.org/2000/svg">
<path d="M0 6.4C0 4.15979 0 3.03969 0.435974 2.18404C0.819467 1.43139 1.43139 0.819467 2.18404 0.435974C3.03969 0 4.15979 0 6.4 0H21.6C23.8402 0 24.9603 0 25.816 0.435974C26.5686 0.819467 27.1805 1.43139 27.564 2.18404C28 3.03969 28 4.15979 28 6.4V21.6C28 23.8402 28 24.9603 27.564 25.816C27.1805 26.5686 26.5686 27.1805 25.816 27.564C24.9603 28 23.8402 28 21.6 28H6.4C4.15979 28 3.03969 28 2.18404 27.564C1.43139 27.1805 0.819467 26.5686 0.435974 25.816C0 24.9603 0 23.8402 0 21.6V6.4Z" fill="#319C30"/>
<path d="M13.7496 19.346C13.1117 19.3584 12.5595 19.4213 12.0076 19.4742C11.8231 19.4924 11.6376 19.4996 11.4523 19.4957C10.8572 19.4812 10.4736 19.1438 10.3657 18.5318C10.2595 17.9198 10.2854 17.2908 10.4414 16.6905C10.733 15.5389 11.2571 14.5279 12.1552 13.7646C12.7277 13.2783 13.3739 13.0248 14.1249 13.2134C14.6132 13.3375 15.0234 13.6116 15.3777 13.9714C16.2322 14.8397 16.7396 15.9012 16.9407 17.1235C17.0175 17.5787 17.0175 18.0444 16.9407 18.4996C16.8301 19.1471 16.4488 19.4812 15.8208 19.4994C15.3892 19.5118 14.9655 19.4271 14.5367 19.4031C14.2471 19.387 13.9575 19.3613 13.7496 19.346ZM15.5554 18.7192H15.7296C16.0989 18.7192 16.1822 18.6327 16.2314 18.244C16.2865 17.7851 16.2547 17.3194 16.1378 16.8733C15.8811 15.8573 15.4194 14.965 14.6061 14.3141C13.9543 13.7923 13.3545 13.789 12.7043 14.3067C11.8835 14.96 11.4189 15.8594 11.1635 16.8832C11.0365 17.3927 10.9913 17.912 11.1095 18.4347C11.152 18.6208 11.2551 18.7212 11.4435 18.7167C11.632 18.7121 11.8152 18.7266 11.9989 18.7026C12.6407 18.6154 13.2877 18.5756 13.9349 18.5835C14.4958 18.5922 15.05 18.6915 15.5554 18.7192Z" fill="white"/>
<path d="M17.6727 10.0986C17.7124 10.5919 17.8012 11.0885 17.6584 11.5768C17.4517 12.2843 16.7646 13.0319 15.6507 12.9294C14.8739 12.8579 14.1547 12.1359 14.0464 11.2874C13.9234 10.3235 14.4201 9.47915 15.3103 9.16035C15.9145 8.94409 16.5234 8.74229 17.1316 8.53761C17.441 8.43382 17.6532 8.56739 17.6683 8.90108C17.6866 9.29969 17.6727 9.69955 17.6727 10.0986ZM16.934 9.42209C16.4687 9.58212 16.0136 9.73677 15.5594 9.89514C14.9711 10.1019 14.6696 10.6585 14.8057 11.2878C14.9152 11.8014 15.436 12.2087 15.9315 12.169C16.479 12.1247 16.957 11.6901 16.9816 11.1724C17.0061 10.5886 16.9902 10.0036 16.934 9.42209Z" fill="white"/>
<path d="M9.63205 10.0993C9.63205 9.69323 9.61895 9.28676 9.63641 8.88111C9.6491 8.58091 9.85976 8.43618 10.1323 8.52674C10.7845 8.74424 11.4387 8.95802 12.0825 9.20075C12.8438 9.4902 13.352 10.3172 13.2802 11.1028C13.1921 12.0539 12.5828 12.7688 11.733 12.9223C10.6139 13.1211 9.57333 12.2131 9.56738 11.0313C9.56738 10.7212 9.56738 10.4111 9.56738 10.1014L9.63205 10.0993ZM10.3676 9.42239C10.3545 9.60764 10.3374 9.77096 10.3326 9.93512C10.3191 10.3747 10.2696 10.8192 10.3326 11.253C10.412 11.7756 10.898 12.1627 11.4101 12.1709C11.8901 12.1788 12.3622 11.8095 12.4892 11.3286C12.6304 10.7886 12.4177 10.2175 11.9401 9.98433C11.4426 9.74036 10.9011 9.61012 10.3676 9.42239Z" fill="white"/>
<path d="M19.4821 12.3856C19.8439 12.3761 20.0291 12.5461 19.9934 12.8041C19.9141 13.383 19.8371 13.9619 19.7157 14.5288C19.557 15.2781 18.8572 15.7557 18.1618 15.6771C17.3624 15.587 16.8082 14.9502 16.7928 14.1513C16.7793 13.4731 17.2371 12.8004 17.8774 12.6515C18.4355 12.5213 19.0084 12.4617 19.4821 12.3856ZM18.2761 14.908C18.5911 14.9134 18.9037 14.705 18.9814 14.3853C19.0655 14.0413 19.1068 13.6857 19.1635 13.3346C19.1738 13.2713 19.1746 13.2143 19.0742 13.2312C18.7569 13.2858 18.4344 13.3177 18.1186 13.3822C17.9462 13.4217 17.7931 13.5245 17.6872 13.6717C17.5813 13.8189 17.5295 14.0008 17.5414 14.1844C17.5576 14.378 17.6413 14.5587 17.7767 14.6923C17.912 14.826 18.0897 14.9033 18.2761 14.9096V14.908Z" fill="white"/>
<path d="M7.83744 12.3876C8.30476 12.4641 8.86888 12.5253 9.4207 12.6555C10.088 12.8135 10.564 13.5346 10.5045 14.2119C10.4319 15.0348 9.88326 15.6117 9.10254 15.6857C8.45075 15.7477 7.75135 15.2573 7.59505 14.5692C7.46414 13.9903 7.39074 13.3957 7.30822 12.8052C7.27252 12.5406 7.46175 12.3731 7.83744 12.3876ZM9.76267 14.1355C9.76355 13.9549 9.70276 13.7799 9.59119 13.6418C9.47962 13.5037 9.32455 13.4115 9.15372 13.3816C8.85063 13.3213 8.542 13.2907 8.23772 13.2348C8.12347 13.2138 8.12902 13.2762 8.14012 13.3473C8.19249 13.6856 8.23216 14.0271 8.30912 14.3592C8.39084 14.7127 8.76058 14.9529 9.0954 14.907C9.47109 14.8554 9.76029 14.5196 9.76267 14.1355Z" fill="white"/>
</svg>
