<svg width="24" height="25" viewBox="0 0 24 25" fill="none" xmlns="http://www.w3.org/2000/svg">
<rect y="0.300049" width="24" height="24" rx="2" fill="#E6F1FD"/>
<g clip-path="url(#clip0_9806_4528)">
<path d="M8.49048 12.8698C7.77483 12.8698 7.05917 12.8603 6.34351 12.8698C6.09144 12.8746 6.00238 12.8102 5.99841 12.5398C5.95626 9.59769 8.37518 6.90284 11.3142 6.62851C14.5139 6.33032 17.2144 8.29838 17.8759 11.4115C17.9539 11.8012 17.9946 12.1973 17.9976 12.5947C17.9976 12.8038 17.9245 12.8698 17.7217 12.869C16.2374 12.8632 14.753 12.8632 13.2687 12.869C13.0301 12.869 12.9808 12.784 13.0063 12.5645C13.178 11.0791 13.3323 9.59133 13.5144 8.11151C13.5502 7.82206 13.485 7.74334 13.1963 7.74811C12.3757 7.76322 11.5543 7.75925 10.7313 7.74811C10.5039 7.74811 10.4387 7.80696 10.4665 8.04472C10.6414 9.51659 10.7846 10.9916 10.9722 12.4611C11.0168 12.8166 10.911 12.885 10.5858 12.8746C9.89477 12.8547 9.19262 12.8698 8.49048 12.8698Z" fill="#1A7D1A"/>
<path d="M11.9956 12.8912C12.9999 12.8976 13.0007 12.8976 12.8608 13.9131C12.8147 14.2502 12.914 14.6971 12.689 14.8967C12.4505 15.1114 12.006 14.9364 11.6553 14.9698C11.3698 14.9977 11.2275 14.9277 11.2163 14.5977C11.1931 14.1236 11.1424 13.6513 11.0645 13.1831C11.0295 12.9493 11.0963 12.8753 11.3237 12.8889C11.5511 12.9024 11.7714 12.8912 11.9956 12.8912Z" fill="#1A7D1A"/>
<path d="M11.082 17.0581C11.0832 16.9354 11.1092 16.8143 11.1582 16.7019C11.2072 16.5895 11.2784 16.4881 11.3674 16.4037C11.4564 16.3194 11.5615 16.2538 11.6764 16.2109C11.7913 16.168 11.9136 16.1486 12.0362 16.1539C12.2771 16.1616 12.5052 16.2646 12.6703 16.4402C12.8355 16.6158 12.9243 16.8497 12.9172 17.0907C12.9137 17.3317 12.8161 17.5619 12.6453 17.732C12.4744 17.9021 12.2439 17.9987 12.0028 18.0011C11.8803 18.0001 11.7592 17.9748 11.6465 17.9268C11.5338 17.8788 11.4317 17.8089 11.3461 17.7213C11.2605 17.6336 11.1931 17.5299 11.1478 17.416C11.1024 17.3022 11.0801 17.1806 11.082 17.0581Z" fill="#1A7D1A"/>
</g>
<defs>
<clipPath id="clip0_9806_4528">
<rect width="12" height="11.3941" fill="white" transform="translate(6 6.60303)"/>
</clipPath>
</defs>
</svg>
