<svg width="25" height="25" viewBox="0 0 25 25" fill="none" xmlns="http://www.w3.org/2000/svg">
<rect x="0.110962" y="0.300049" width="24" height="24" rx="2" fill="#E6F1FD"/>
<g clip-path="url(#clip0_9805_4480)">
<path d="M13.1539 9.81169C13.0805 10.6809 13.0489 11.5437 12.7366 12.3647C12.6632 12.5588 12.7808 12.7352 12.8137 12.9192C12.9996 13.9584 13.1994 14.9951 13.3853 16.0343C13.4422 16.3541 13.4713 16.6992 13.1071 16.8604C12.6645 17.0571 12.1903 17.0431 11.7566 16.849C11.5328 16.7487 11.6934 16.5457 11.8046 16.4328C12.1385 16.0952 12.0942 15.7247 11.969 15.3161C11.5846 14.0688 11.1243 12.852 10.6349 11.5919C10.5793 11.6884 10.5388 11.7303 10.5477 11.7493C10.941 12.5538 10.578 13.1806 10.1064 13.8074C9.85474 14.1424 9.68529 14.5383 9.45515 14.8923C9.17442 15.325 9.0328 15.7514 9.3072 16.2475C9.49688 16.5901 9.39572 16.8109 8.98222 16.8413C8.75207 16.8578 8.52067 16.8997 8.29179 16.887C7.86944 16.8629 7.64562 16.8096 7.92128 16.2475C8.32972 15.4138 8.33478 14.4469 8.50423 13.5359C8.6762 12.6134 9.18581 11.8102 9.40077 10.9042C9.43618 10.757 9.57781 10.7443 9.69161 10.6936C10.8019 10.2063 11.3975 9.2851 11.7351 8.17483C11.9817 7.36654 11.797 7.00745 11.0269 6.66992C10.4781 6.42884 9.90911 6.31083 9.19972 6.46183C9.75231 6.60902 10.2341 6.60267 10.6691 6.79808C11.1812 7.02775 11.5163 7.37416 11.4088 7.97434C11.2166 9.03767 10.6476 9.85103 9.67391 10.3218C9.02521 10.6352 8.67494 10.436 8.58389 9.73048C8.51182 9.17217 8.51308 8.60371 8.47767 7.96292C8.22224 8.23827 8.28926 8.49839 8.31455 8.76105C8.39421 9.60486 8.09579 9.95381 7.26373 9.92082C6.98048 9.9094 6.84518 10.0629 6.66814 10.2025C5.88034 10.8179 5.01288 11.092 4 10.724C4.28578 10.6758 4.57536 10.6466 4.85482 10.573C5.13301 10.4994 5.43144 10.4398 5.63882 10.1124C5.43903 10.1479 5.28475 10.1746 5.08749 10.2101C5.15577 9.5706 5.25567 9.01102 5.68434 8.50474C6.1029 8.01114 6.36845 7.39192 6.74654 6.85899C7.34719 6.01137 7.8707 5.89083 8.87853 6.07101C10.0305 6.27657 11.2027 6.37427 12.3673 6.51639C13.5155 6.65597 14.6662 6.78539 15.8132 6.93385C17.256 7.12038 18.6078 8.56564 18.7544 10.0769C18.8202 10.7494 18.8758 11.4245 18.9037 12.0995C18.9568 13.3709 19.4689 14.5167 19.8407 15.7019C19.9229 15.9658 20.1429 16.2703 19.8571 16.5279C19.5587 16.7969 19.1793 16.736 18.8341 16.6421C18.4902 16.5482 18.3599 16.2741 18.3372 15.9176C18.2929 15.2146 18.0931 14.5459 17.8048 13.9077C17.5734 13.3963 17.1624 13.0537 16.5946 12.6819C17.5721 13.9204 17.1675 15.2514 17.2383 16.5076C17.2497 16.703 17.0954 16.8033 16.9133 16.8363C16.7489 16.8667 16.582 16.9124 16.4163 16.9099C16.0243 16.9035 15.4894 17.0571 15.3061 16.6827C15.1341 16.3287 15.6614 16.1409 15.8954 15.8998C16.0977 15.6905 16.1293 15.4671 16.1053 15.2057C15.9662 13.6742 15.1417 12.668 13.7267 12.1553C13.3271 12.0107 13.145 11.9117 13.3309 11.4295C13.5358 10.9004 13.5092 10.3269 13.1539 9.81169Z" fill="#1A7D1A"/>
<path d="M6.09027 10.8915C6.08141 11.4993 6.02577 12.0563 6.33179 12.5512C6.46456 12.7656 6.60493 13.0422 6.8945 12.9699C7.17775 12.9001 7.14614 12.6057 7.0943 12.3799C7.03107 12.1033 7.20684 12.0512 7.39525 12.0068C7.64563 11.9472 7.6646 12.1515 7.7 12.3076C7.83025 12.8709 7.43698 13.4242 6.86036 13.5016C5.74126 13.65 4.69044 12.5119 4.91426 11.4028C4.94967 11.229 5.0306 11.1579 5.19625 11.1224C5.48203 11.0628 5.76149 10.979 6.09027 10.8915Z" fill="#1A7D1A"/>
</g>
<defs>
<clipPath id="clip0_9805_4480">
<rect width="16" height="11" fill="white" transform="translate(4 6)"/>
</clipPath>
</defs>
</svg>
