<svg width="25" height="25" viewBox="0 0 25 25" fill="none" xmlns="http://www.w3.org/2000/svg">
<rect x="0.765167" y="0.300049" width="24" height="24" rx="2" fill="#EDEEFC"/>
<path d="M17.3268 9.16622C17.5238 10.8187 16.7233 12.1613 15.9588 13.5086C15.087 15.046 14.0226 16.4531 12.9721 17.8694C12.8272 18.0649 12.6953 18.2113 12.4783 17.9261C11.0942 16.1034 9.75236 14.2539 8.72868 12.1951C7.86297 10.4544 7.78016 8.6379 8.4189 6.8436C8.96946 5.2962 10.2063 4.42359 11.8028 4.0977C14.6898 3.5088 17.316 5.6543 17.326 8.59112C17.3275 8.78282 17.3268 8.97452 17.3268 9.16622ZM11.0873 7.878C11.0881 8.89707 11.6962 9.62553 12.5803 9.67077C13.242 9.70451 13.765 9.44073 14.0871 8.87484C14.4451 8.24607 14.4352 7.56438 14.0986 6.93331C13.7175 6.21942 12.9737 5.96638 12.1578 6.20179C11.4976 6.39195 11.0866 7.03606 11.0873 7.878Z" fill="#1A7D1A"/>
</svg>
