<svg width="739" height="900" viewBox="0 0 739 900" fill="none" xmlns="http://www.w3.org/2000/svg">
<g clip-path="url(#clip0_9474_949)">
<rect width="739" height="900" fill="url(#paint0_linear_9474_949)"/>
<g filter="url(#filter0_i_9474_949)">
<rect width="9.92233" height="215.976" transform="matrix(0.866025 -0.5 2.20305e-08 1 625.166 669.955)" fill="url(#paint1_radial_9474_949)"/>
</g>
<g filter="url(#filter1_i_9474_949)">
<rect width="9.92233" height="172.237" transform="matrix(0.866025 -0.5 0.866025 0.5 476 583.961)" fill="url(#paint2_radial_9474_949)"/>
</g>
<g filter="url(#filter2_i_9474_949)">
<rect width="9.92233" height="215.976" transform="matrix(0.866025 -0.5 2.20305e-08 1 710.828 752.641)" fill="url(#paint3_radial_9474_949)"/>
</g>
<g filter="url(#filter3_i_9474_949)">
<rect width="9.92233" height="172.237" transform="matrix(0.866025 -0.5 0.866025 0.5 561.663 666.647)" fill="url(#paint4_radial_9474_949)"/>
</g>
<g clip-path="url(#clip1_9474_949)" filter="url(#filter4_i_9474_949)">
<rect width="172.318" height="215.976" transform="matrix(0.866025 0.5 -2.20305e-08 1 476 583.961)" fill="url(#paint5_radial_9474_949)"/>
</g>
<g filter="url(#filter5_i_9474_949)">
<rect width="9.92233" height="215.976" transform="matrix(-0.866025 -0.5 -2.20305e-08 1 119.256 98.9546)" fill="url(#paint6_radial_9474_949)"/>
</g>
<g filter="url(#filter6_i_9474_949)">
<rect width="9.92233" height="172.237" transform="matrix(-0.866025 -0.5 -0.866025 0.5 268.421 12.9609)" fill="url(#paint7_radial_9474_949)"/>
</g>
<g filter="url(#filter7_i_9474_949)">
<rect width="9.92233" height="215.976" transform="matrix(-0.866025 -0.5 -2.20305e-08 1 33.593 181.641)" fill="url(#paint8_radial_9474_949)"/>
</g>
<g filter="url(#filter8_i_9474_949)">
<rect width="9.92233" height="172.237" transform="matrix(-0.866025 -0.5 -0.866025 0.5 182.759 95.647)" fill="url(#paint9_radial_9474_949)"/>
</g>
<g clip-path="url(#clip2_9474_949)" filter="url(#filter9_i_9474_949)">
<rect width="172.318" height="215.976" transform="matrix(-0.866025 0.5 2.20305e-08 1 268.421 12.9609)" fill="url(#paint10_radial_9474_949)"/>
</g>
<path d="M76.7091 514.605H78.3262C78.5489 516.55 80.4825 517.886 83.0606 517.886C85.5919 517.886 87.4083 516.468 87.4083 514.593C87.4083 513 86.2481 511.968 83.6348 511.324L81.7012 510.832C78.5255 510.046 77.1895 508.722 77.1895 506.425C77.1895 503.695 79.545 501.738 82.9786 501.738C86.213 501.738 88.6036 503.648 88.7794 506.226H87.1622C86.9044 504.421 85.2755 503.203 82.9317 503.203C80.5059 503.203 78.8301 504.539 78.8301 506.378C78.8301 507.855 79.8731 508.71 82.4512 509.355L84.127 509.777C87.6192 510.644 89.0489 512.027 89.0489 514.417C89.0489 517.371 86.6231 519.351 82.92 519.351C79.4278 519.351 76.9083 517.429 76.7091 514.605ZM92.3887 519V506.378H93.8536V508.652H94.0059C94.5567 507.105 95.9044 506.167 97.6505 506.167C99.42 506.167 100.686 507.14 101.225 508.652H101.377C102.022 507.14 103.498 506.167 105.315 506.167C107.846 506.167 109.311 507.691 109.311 510.363V519H107.775V510.714C107.775 508.652 106.756 507.55 104.857 507.55C102.912 507.55 101.611 509.039 101.611 510.996V519H100.076V510.55C100.076 508.734 98.9161 507.55 97.17 507.55C95.3419 507.55 93.9239 509.191 93.9239 511.253V519H92.3887ZM116.928 517.851C119.19 517.851 120.912 516.304 120.912 514.3V512.824L117.174 513.093C115.029 513.246 113.998 514.042 113.998 515.484C113.998 516.937 115.229 517.851 116.928 517.851ZM116.67 519.21C114.197 519.21 112.416 517.769 112.416 515.507C112.416 513.304 114.045 512.027 116.963 511.828L120.912 511.57V510.351C120.912 508.546 119.822 507.539 117.772 507.539C116.037 507.539 114.783 508.277 114.479 509.496H112.92C113.213 507.492 115.17 506.167 117.818 506.167C120.783 506.167 122.459 507.714 122.459 510.339V519H120.982V516.832H120.842C120.068 518.332 118.522 519.21 116.67 519.21ZM126.35 519V506.378H127.815V508.453H127.967C128.389 507.082 129.807 506.167 131.482 506.167C131.904 506.167 132.326 506.191 132.666 506.273V507.808C132.385 507.726 131.752 507.656 131.295 507.656C129.338 507.656 127.885 509.132 127.885 511.125V519H126.35ZM136.709 503.097H138.244V506.378H141.162V507.679H138.244V515.507C138.244 517.054 138.83 517.71 140.248 517.71C140.494 517.71 140.904 517.699 141.162 517.675V518.988C140.893 519.035 140.354 519.07 140.084 519.07C137.67 519.07 136.709 518.156 136.709 515.859V507.679H134.647V506.378H136.709V503.097ZM167.377 519H165.877V505.207H165.76L159.924 518.917H158.529L152.693 505.207H152.588V519H151.076V502.089H152.916L159.162 516.808H159.303L165.525 502.089H167.377V519ZM176.635 519.21C173.107 519.21 170.904 516.714 170.904 512.683C170.904 508.652 173.107 506.167 176.635 506.167C180.162 506.167 182.377 508.652 182.377 512.683C182.377 516.714 180.162 519.21 176.635 519.21ZM176.635 517.816C179.236 517.816 180.783 515.882 180.783 512.683C180.783 509.484 179.236 507.55 176.635 507.55C174.033 507.55 172.486 509.484 172.486 512.683C172.486 515.882 174.033 517.816 176.635 517.816ZM185.693 519V506.378H187.158V508.652H187.311C187.979 507.093 189.373 506.167 191.389 506.167C194.201 506.167 195.807 507.855 195.807 510.796V519H194.272V511.183C194.272 508.781 193.17 507.55 190.979 507.55C188.752 507.55 187.229 509.121 187.229 511.5V519H185.693ZM199.732 519V506.378H201.268V519H199.732ZM200.494 503.566C199.873 503.566 199.357 503.05 199.357 502.417C199.357 501.796 199.873 501.281 200.494 501.281C201.127 501.281 201.643 501.796 201.643 502.417C201.643 503.05 201.127 503.566 200.494 503.566ZM206.084 503.097H207.619V506.378H210.537V507.679H207.619V515.507C207.619 517.054 208.205 517.71 209.623 517.71C209.869 517.71 210.279 517.699 210.537 517.675V518.988C210.268 519.035 209.729 519.07 209.459 519.07C207.045 519.07 206.084 518.156 206.084 515.859V507.679H204.022V506.378H206.084V503.097ZM218.635 519.21C215.107 519.21 212.904 516.714 212.904 512.683C212.904 508.652 215.107 506.167 218.635 506.167C222.162 506.167 224.377 508.652 224.377 512.683C224.377 516.714 222.162 519.21 218.635 519.21ZM218.635 517.816C221.236 517.816 222.783 515.882 222.783 512.683C222.783 509.484 221.236 507.55 218.635 507.55C216.033 507.55 214.486 509.484 214.486 512.683C214.486 515.882 216.033 517.816 218.635 517.816ZM227.693 519V506.378H229.158V508.453H229.311C229.732 507.082 231.15 506.167 232.826 506.167C233.248 506.167 233.67 506.191 234.01 506.273V507.808C233.729 507.726 233.096 507.656 232.639 507.656C230.682 507.656 229.229 509.132 229.229 511.125V519H227.693ZM236.717 519V506.378H238.252V519H236.717ZM237.479 503.566C236.857 503.566 236.342 503.05 236.342 502.417C236.342 501.796 236.857 501.281 237.479 501.281C238.111 501.281 238.627 501.796 238.627 502.417C238.627 503.05 238.111 503.566 237.479 503.566ZM242.272 519V506.378H243.736V508.652H243.889C244.557 507.093 245.951 506.167 247.967 506.167C250.779 506.167 252.385 507.855 252.385 510.796V519H250.85V511.183C250.85 508.781 249.748 507.55 247.557 507.55C245.33 507.55 243.807 509.121 243.807 511.5V519H242.272ZM261.232 517.5C263.764 517.5 265.334 515.542 265.334 512.554C265.334 509.554 263.729 507.55 261.232 507.55C258.713 507.55 257.19 509.531 257.19 512.531C257.19 515.519 258.713 517.5 261.232 517.5ZM261.361 523.734C258.467 523.734 256.545 522.445 256.217 520.476H257.846C258.127 521.636 259.44 522.386 261.361 522.386C263.799 522.386 265.311 521.109 265.311 519.07V516.234H265.158C264.408 517.898 262.861 518.871 260.928 518.871C257.682 518.871 255.607 516.316 255.607 512.531C255.607 508.746 257.693 506.167 260.928 506.167C262.861 506.167 264.537 507.234 265.229 508.875H265.369V506.378H266.846V519.187C266.846 521.929 264.678 523.734 261.361 523.734ZM282.385 519.21C278.857 519.21 276.654 516.714 276.654 512.683C276.654 508.652 278.857 506.167 282.385 506.167C285.912 506.167 288.127 508.652 288.127 512.683C288.127 516.714 285.912 519.21 282.385 519.21ZM282.385 517.816C284.986 517.816 286.533 515.882 286.533 512.683C286.533 509.484 284.986 507.55 282.385 507.55C279.783 507.55 278.236 509.484 278.236 512.683C278.236 515.882 279.783 517.816 282.385 517.816ZM292.287 519V507.679H290.19V506.378H292.287V504.761C292.287 502.417 293.482 501.234 295.674 501.234C296.143 501.234 296.529 501.269 296.916 501.351V502.617C296.67 502.57 296.33 502.546 295.967 502.546C294.514 502.546 293.822 503.332 293.822 504.796V506.378H296.799V507.679H293.822V519H292.287ZM308.143 519H306.537V502.089H316.568V503.542H308.143V509.894H315.889V511.324H308.143V519ZM324.994 519.21C321.467 519.21 319.264 516.714 319.264 512.683C319.264 508.652 321.467 506.167 324.994 506.167C328.522 506.167 330.736 508.652 330.736 512.683C330.736 516.714 328.522 519.21 324.994 519.21ZM324.994 517.816C327.596 517.816 329.143 515.882 329.143 512.683C329.143 509.484 327.596 507.55 324.994 507.55C322.393 507.55 320.846 509.484 320.846 512.683C320.846 515.882 322.393 517.816 324.994 517.816ZM334.053 519V506.378H335.518V508.453H335.67C336.092 507.082 337.51 506.167 339.186 506.167C339.607 506.167 340.029 506.191 340.369 506.273V507.808C340.088 507.726 339.455 507.656 338.998 507.656C337.041 507.656 335.588 509.132 335.588 511.125V519H334.053ZM347.6 507.527C345.303 507.527 343.709 509.226 343.568 511.828H351.432C351.397 509.226 349.885 507.527 347.6 507.527ZM351.279 515.882H352.838C352.217 517.933 350.272 519.21 347.623 519.21C344.154 519.21 341.975 516.679 341.975 512.695C341.975 508.734 344.178 506.167 347.611 506.167C350.975 506.167 353.037 508.558 353.037 512.414V513.093H343.557V513.164C343.639 516.011 345.221 517.839 347.658 517.839C349.451 517.839 350.74 517.125 351.279 515.882ZM356.072 509.718C356.072 507.691 358.088 506.167 360.631 506.167C363.174 506.167 364.979 507.433 365.26 509.437H363.748C363.467 508.253 362.295 507.48 360.619 507.48C358.967 507.48 357.619 508.394 357.619 509.66C357.619 510.703 358.44 511.3 360.127 511.699L361.861 512.109C364.299 512.695 365.482 513.679 365.482 515.507C365.482 517.687 363.361 519.21 360.607 519.21C357.854 519.21 355.943 517.91 355.686 515.835H357.279C357.619 517.101 358.826 517.898 360.654 517.898C362.506 517.898 363.9 516.949 363.9 515.625C363.9 514.523 363.115 513.878 361.428 513.48L359.518 513.023C357.174 512.46 356.072 511.5 356.072 509.718ZM369.467 503.097H371.002V506.378H373.92V507.679H371.002V515.507C371.002 517.054 371.588 517.71 373.006 517.71C373.252 517.71 373.662 517.699 373.92 517.675V518.988C373.65 519.035 373.111 519.07 372.842 519.07C370.428 519.07 369.467 518.156 369.467 515.859V507.679H367.404V506.378H369.467V503.097ZM376.58 509.718C376.58 507.691 378.596 506.167 381.139 506.167C383.682 506.167 385.486 507.433 385.768 509.437H384.256C383.975 508.253 382.803 507.48 381.127 507.48C379.475 507.48 378.127 508.394 378.127 509.66C378.127 510.703 378.947 511.3 380.635 511.699L382.369 512.109C384.807 512.695 385.99 513.679 385.99 515.507C385.99 517.687 383.869 519.21 381.115 519.21C378.361 519.21 376.451 517.91 376.193 515.835H377.787C378.127 517.101 379.334 517.898 381.162 517.898C383.014 517.898 384.408 516.949 384.408 515.625C384.408 514.523 383.623 513.878 381.936 513.48L380.025 513.023C377.682 512.46 376.58 511.5 376.58 509.718ZM408.232 519L406.381 517.031C404.928 518.449 402.854 519.292 400.768 519.292C397.486 519.292 395.213 517.335 395.213 514.582C395.213 512.671 396.256 511.183 398.506 509.988C398.611 509.929 399.279 509.589 399.408 509.519C397.674 507.738 397.1 506.671 397.1 505.429C397.1 503.332 398.904 501.75 401.295 501.75C403.686 501.75 405.443 503.296 405.443 505.429C405.443 507.117 404.365 508.429 401.6 509.847L406.287 514.851C406.967 513.644 407.365 512.062 407.365 510.128V509.589H408.865V510.128C408.865 512.46 408.315 514.464 407.342 515.929L410.248 519H408.232ZM399.432 510.96C397.674 511.875 396.807 513.117 396.807 514.488C396.807 516.48 398.459 517.921 400.897 517.921C402.561 517.921 404.365 517.16 405.408 516.011L400.299 510.515C400.217 510.55 399.549 510.902 399.432 510.96ZM400.721 508.933C403.041 507.773 403.932 506.753 403.932 505.488C403.932 504.07 402.818 503.039 401.295 503.039C399.795 503.039 398.635 504.105 398.635 505.511C398.635 506.507 399.139 507.339 400.721 508.933ZM426.467 519.351C421.873 519.351 419.014 515.976 419.014 510.55C419.014 505.125 421.873 501.738 426.455 501.738C429.936 501.738 432.748 504.046 433.205 507.257H431.576C431.084 504.867 428.998 503.226 426.455 503.226C422.916 503.226 420.654 506.074 420.654 510.55C420.654 515.027 422.904 517.863 426.467 517.863C429.08 517.863 431.107 516.41 431.576 514.183H433.205C432.725 517.289 430.053 519.351 426.467 519.351ZM441.666 519.21C438.139 519.21 435.936 516.714 435.936 512.683C435.936 508.652 438.139 506.167 441.666 506.167C445.193 506.167 447.408 508.652 447.408 512.683C447.408 516.714 445.193 519.21 441.666 519.21ZM441.666 517.816C444.268 517.816 445.815 515.882 445.815 512.683C445.815 509.484 444.268 507.55 441.666 507.55C439.065 507.55 437.518 509.484 437.518 512.683C437.518 515.882 439.065 517.816 441.666 517.816ZM450.725 519V506.378H452.19V508.652H452.342C452.893 507.105 454.24 506.167 455.986 506.167C457.756 506.167 459.022 507.14 459.561 508.652H459.713C460.357 507.14 461.834 506.167 463.65 506.167C466.182 506.167 467.647 507.691 467.647 510.363V519H466.111V510.714C466.111 508.652 465.092 507.55 463.193 507.55C461.248 507.55 459.947 509.039 459.947 510.996V519H458.412V510.55C458.412 508.734 457.252 507.55 455.506 507.55C453.678 507.55 452.26 509.191 452.26 511.253V519H450.725ZM471.49 519V506.378H472.955V508.652H473.107C473.658 507.105 475.006 506.167 476.752 506.167C478.522 506.167 479.787 507.14 480.326 508.652H480.479C481.123 507.14 482.6 506.167 484.416 506.167C486.947 506.167 488.412 507.691 488.412 510.363V519H486.877V510.714C486.877 508.652 485.857 507.55 483.959 507.55C482.014 507.55 480.713 509.039 480.713 510.996V519H479.178V510.55C479.178 508.734 478.018 507.55 476.272 507.55C474.443 507.55 473.025 509.191 473.025 511.253V519H471.49ZM502.275 506.378V519H500.811V516.726H500.67C500.037 518.296 498.572 519.21 496.557 519.21C493.744 519.21 492.15 517.476 492.15 514.582V506.378H493.686V514.195C493.686 516.55 494.787 517.804 496.955 517.804C499.311 517.804 500.74 516.269 500.74 513.878V506.378H502.275ZM506.248 519V506.378H507.713V508.652H507.865C508.533 507.093 509.928 506.167 511.943 506.167C514.756 506.167 516.361 507.855 516.361 510.796V519H514.826V511.183C514.826 508.781 513.725 507.55 511.533 507.55C509.307 507.55 507.783 509.121 507.783 511.5V519H506.248ZM520.287 519V506.378H521.822V519H520.287ZM521.049 503.566C520.428 503.566 519.912 503.05 519.912 502.417C519.912 501.796 520.428 501.281 521.049 501.281C521.682 501.281 522.197 501.796 522.197 502.417C522.197 503.05 521.682 503.566 521.049 503.566ZM526.639 503.097H528.174V506.378H531.092V507.679H528.174V515.507C528.174 517.054 528.76 517.71 530.178 517.71C530.424 517.71 530.834 517.699 531.092 517.675V518.988C530.822 519.035 530.283 519.07 530.014 519.07C527.6 519.07 526.639 518.156 526.639 515.859V507.679H524.576V506.378H526.639V503.097ZM534.397 519V506.378H535.932V519H534.397ZM535.158 503.566C534.537 503.566 534.022 503.05 534.022 502.417C534.022 501.796 534.537 501.281 535.158 501.281C535.791 501.281 536.307 501.796 536.307 502.417C536.307 503.05 535.791 503.566 535.158 503.566ZM544.943 507.527C542.647 507.527 541.053 509.226 540.912 511.828H548.775C548.74 509.226 547.229 507.527 544.943 507.527ZM548.623 515.882H550.182C549.561 517.933 547.615 519.21 544.967 519.21C541.498 519.21 539.318 516.679 539.318 512.695C539.318 508.734 541.522 506.167 544.955 506.167C548.318 506.167 550.381 508.558 550.381 512.414V513.093H540.9V513.164C540.982 516.011 542.565 517.839 545.002 517.839C546.795 517.839 548.084 517.125 548.623 515.882ZM553.416 509.718C553.416 507.691 555.432 506.167 557.975 506.167C560.518 506.167 562.322 507.433 562.604 509.437H561.092C560.811 508.253 559.639 507.48 557.963 507.48C556.311 507.48 554.963 508.394 554.963 509.66C554.963 510.703 555.783 511.3 557.471 511.699L559.205 512.109C561.643 512.695 562.826 513.679 562.826 515.507C562.826 517.687 560.705 519.21 557.951 519.21C555.197 519.21 553.287 517.91 553.029 515.835H554.623C554.963 517.101 556.17 517.898 557.998 517.898C559.85 517.898 561.244 516.949 561.244 515.625C561.244 514.523 560.459 513.878 558.772 513.48L556.861 513.023C554.518 512.46 553.416 511.5 553.416 509.718ZM588.186 506.378L584.588 519H582.959L579.854 508.523H579.701L576.596 519H574.979L571.404 506.378H572.963L575.764 517.089H575.904L579.022 506.378H580.557L583.674 517.089H583.815L586.639 506.378H588.186ZM591.022 519V506.378H592.557V519H591.022ZM591.783 503.566C591.162 503.566 590.647 503.05 590.647 502.417C590.647 501.796 591.162 501.281 591.783 501.281C592.416 501.281 592.932 501.796 592.932 502.417C592.932 503.05 592.416 503.566 591.783 503.566ZM597.373 503.097H598.908V506.378H601.826V507.679H598.908V515.507C598.908 517.054 599.494 517.71 600.912 517.71C601.158 517.71 601.568 517.699 601.826 517.675V518.988C601.557 519.035 601.018 519.07 600.748 519.07C598.334 519.07 597.373 518.156 597.373 515.859V507.679H595.311V506.378H597.373V503.097ZM605.178 519V501.351H606.713V508.652H606.854C607.533 507.093 608.986 506.167 611.002 506.167C613.697 506.167 615.385 507.878 615.385 510.796V519H613.85V511.183C613.85 508.804 612.701 507.55 610.592 507.55C608.201 507.55 606.713 509.179 606.713 511.5V519H605.178ZM637.17 519L635.295 513.82H628.193L626.318 519H624.619L630.947 502.089H632.541L638.857 519H637.17ZM631.662 504.187L628.674 512.437H634.815L631.815 504.187H631.662ZM643.51 519H641.904V502.089H643.51V519ZM294.174 543.605H295.791C296.014 545.55 297.947 546.886 300.525 546.886C303.057 546.886 304.873 545.468 304.873 543.593C304.873 542 303.713 540.968 301.1 540.324L299.166 539.832C295.99 539.046 294.654 537.722 294.654 535.425C294.654 532.695 297.01 530.738 300.443 530.738C303.678 530.738 306.068 532.648 306.244 535.226H304.627C304.369 533.421 302.74 532.203 300.397 532.203C297.971 532.203 296.295 533.539 296.295 535.378C296.295 536.855 297.338 537.71 299.916 538.355L301.592 538.777C305.084 539.644 306.514 541.027 306.514 543.417C306.514 546.371 304.088 548.351 300.385 548.351C296.893 548.351 294.373 546.429 294.174 543.605ZM319.873 535.378V548H318.408V545.726H318.268C317.635 547.296 316.17 548.21 314.154 548.21C311.342 548.21 309.748 546.476 309.748 543.582V535.378H311.283V543.195C311.283 545.55 312.385 546.804 314.553 546.804C316.908 546.804 318.338 545.269 318.338 542.878V535.378H319.873ZM323.846 548V535.378H325.311V537.453H325.463C325.885 536.082 327.303 535.167 328.979 535.167C329.4 535.167 329.822 535.191 330.162 535.273V536.808C329.881 536.726 329.248 536.656 328.791 536.656C326.834 536.656 325.381 538.132 325.381 540.125V548H323.846ZM342.666 535.378L337.955 548H336.315L331.604 535.378H333.244L337.065 546.324H337.205L341.014 535.378H342.666ZM349.979 536.527C347.682 536.527 346.088 538.226 345.947 540.828H353.811C353.775 538.226 352.264 536.527 349.979 536.527ZM353.658 544.882H355.217C354.596 546.933 352.65 548.21 350.002 548.21C346.533 548.21 344.354 545.679 344.354 541.695C344.354 537.734 346.557 535.167 349.99 535.167C353.354 535.167 355.416 537.558 355.416 541.414V542.093H345.936V542.164C346.018 545.011 347.6 546.839 350.037 546.839C351.83 546.839 353.119 546.125 353.658 544.882ZM358.815 548V535.378H360.35V548H358.815ZM359.576 532.566C358.955 532.566 358.44 532.05 358.44 531.417C358.44 530.796 358.955 530.281 359.576 530.281C360.209 530.281 360.725 530.796 360.725 531.417C360.725 532.05 360.209 532.566 359.576 532.566ZM364.486 548V530.351H366.022V548H364.486ZM370.229 548V530.351H371.764V548H370.229ZM379.627 546.851C381.889 546.851 383.611 545.304 383.611 543.3V541.824L379.873 542.093C377.729 542.246 376.697 543.042 376.697 544.484C376.697 545.937 377.928 546.851 379.627 546.851ZM379.369 548.21C376.897 548.21 375.115 546.769 375.115 544.507C375.115 542.304 376.744 541.027 379.662 540.828L383.611 540.57V539.351C383.611 537.546 382.522 536.539 380.471 536.539C378.736 536.539 377.482 537.277 377.178 538.496H375.619C375.912 536.492 377.869 535.167 380.518 535.167C383.482 535.167 385.158 536.714 385.158 539.339V548H383.682V545.832H383.541C382.768 547.332 381.221 548.21 379.369 548.21ZM389.049 548V535.378H390.514V537.652H390.666C391.334 536.093 392.729 535.167 394.744 535.167C397.557 535.167 399.162 536.855 399.162 539.796V548H397.627V540.183C397.627 537.781 396.525 536.55 394.334 536.55C392.107 536.55 390.584 538.121 390.584 540.5V548H389.049ZM413.248 539.093H411.69C411.303 537.64 410.002 536.55 408.068 536.55C405.561 536.55 403.967 538.531 403.967 541.648C403.967 544.8 405.572 546.816 408.068 546.816C409.932 546.816 411.291 545.914 411.678 544.367H413.236C412.85 546.628 410.963 548.21 408.08 548.21C404.6 548.21 402.385 545.656 402.385 541.648C402.385 537.699 404.588 535.167 408.068 535.167C410.963 535.167 412.873 536.89 413.248 539.093ZM421.44 536.527C419.143 536.527 417.549 538.226 417.408 540.828H425.272C425.236 538.226 423.725 536.527 421.44 536.527ZM425.119 544.882H426.678C426.057 546.933 424.111 548.21 421.463 548.21C417.994 548.21 415.815 545.679 415.815 541.695C415.815 537.734 418.018 535.167 421.451 535.167C424.815 535.167 426.877 537.558 426.877 541.414V542.093H417.397V542.164C417.479 545.011 419.061 546.839 421.498 546.839C423.291 546.839 424.58 546.125 425.119 544.882Z" fill="white"/>
<path d="M365.747 411.918L361.841 401.528H348.599L344.693 411.918H340.786L353.677 379.067H356.88L369.693 411.918H365.747ZM360.513 398.09L356.607 387.973C356.019 386.425 355.51 384.847 355.083 383.247C354.732 384.653 354.263 386.254 353.677 387.973L349.771 398.09H360.513Z" fill="white"/>
<path d="M374.146 411.918V379.184H378.052V411.918H374.146Z" fill="white"/>
<path d="M397.74 411.917H396.568V395.55H405.514V396.605H397.701V403.753H405.045V404.808H397.74V411.917Z" fill="white"/>
<path d="M421.764 403.754C421.88 405.979 421.187 408.172 419.811 409.926C419.116 410.641 418.284 411.21 417.364 411.599C416.445 411.988 415.457 412.188 414.459 412.188C413.461 412.188 412.474 411.988 411.554 411.599C410.635 411.21 409.803 410.641 409.108 409.926C407.743 408.168 407.063 405.975 407.194 403.754C407.059 401.526 407.755 399.327 409.147 397.582C409.816 396.835 410.644 396.247 411.57 395.862C412.496 395.477 413.497 395.303 414.498 395.355C415.504 395.303 416.508 395.479 417.435 395.872C418.362 396.264 419.188 396.862 419.85 397.621C421.196 399.373 421.875 401.547 421.764 403.754ZM408.405 403.754C408.289 405.689 408.841 407.605 409.967 409.183C410.544 409.796 411.24 410.284 412.013 410.617C412.785 410.951 413.618 411.123 414.459 411.123C415.301 411.123 416.133 410.951 416.906 410.617C417.678 410.284 418.375 409.796 418.952 409.183C420.096 407.599 420.648 405.664 420.514 403.715C420.642 401.778 420.09 399.857 418.952 398.285C418.372 397.684 417.677 397.205 416.909 396.879C416.14 396.552 415.314 396.383 414.479 396.383C413.644 396.383 412.817 396.552 412.049 396.879C411.28 397.205 410.586 397.684 410.006 398.285C408.83 399.855 408.261 401.797 408.405 403.754Z" fill="white"/>
<path d="M426.491 404.809V411.918H425.358V395.551H429.264C430.845 395.437 432.42 395.834 433.757 396.684C434.259 397.087 434.654 397.608 434.906 398.201C435.158 398.794 435.26 399.44 435.202 400.082C435.243 401.078 434.939 402.057 434.343 402.856C433.671 403.663 432.75 404.226 431.725 404.457L436.139 411.918H434.772L430.593 404.809H426.491ZM426.491 403.754H429.616C430.76 403.821 431.892 403.49 432.819 402.817C433.204 402.478 433.506 402.055 433.703 401.581C433.899 401.107 433.984 400.594 433.952 400.082C433.991 399.57 433.908 399.055 433.711 398.58C433.515 398.105 433.209 397.683 432.819 397.348C431.72 396.712 430.452 396.425 429.186 396.528H426.491V403.754Z" fill="white"/>
<path d="M448.013 411.917H439.068V395.55H448.013V396.605H440.201V402.816H447.506V403.753H440.24V410.746H448.052L448.013 411.917Z" fill="white"/>
<path d="M460.669 407.661C460.697 408.28 460.577 408.897 460.319 409.461C460.061 410.025 459.672 410.519 459.185 410.903C458.063 411.747 456.682 412.175 455.279 412.114C453.709 412.225 452.132 412.039 450.63 411.567V410.434C452.062 410.982 453.59 411.234 455.123 411.176C456.254 411.237 457.371 410.906 458.287 410.239C458.664 409.96 458.967 409.594 459.172 409.173C459.376 408.751 459.474 408.285 459.459 407.817C459.483 407.282 459.347 406.751 459.068 406.294C458.747 405.822 458.319 405.434 457.818 405.161C456.986 404.746 456.124 404.393 455.24 404.106C453.956 403.747 452.769 403.106 451.763 402.231C451.407 401.835 451.136 401.371 450.967 400.866C450.797 400.362 450.732 399.828 450.776 399.298C450.82 398.767 450.971 398.252 451.222 397.782C451.472 397.312 451.816 396.899 452.232 396.567C453.345 395.708 454.736 395.291 456.138 395.395C457.618 395.391 459.081 395.697 460.435 396.294L460.044 397.27C458.815 396.719 457.485 396.427 456.138 396.411C455.116 396.355 454.107 396.659 453.287 397.27C452.936 397.533 452.654 397.875 452.464 398.27C452.273 398.664 452.18 399.098 452.193 399.536C452.169 400.054 452.291 400.568 452.544 401.02C452.802 401.455 453.165 401.817 453.599 402.075C454.428 402.518 455.29 402.897 456.177 403.208C457.172 403.515 458.129 403.934 459.029 404.458C459.611 404.797 460.095 405.282 460.435 405.864C460.653 406.436 460.733 407.052 460.669 407.661Z" fill="white"/>
<path d="M468.367 411.917H467.234V396.644H461.922V395.55H473.641V396.644H468.367V411.917Z" fill="white"/>
<path d="M349.03 444.184V457.777H345.124V425.043H354.069C357.198 424.809 360.317 425.619 362.936 427.348C363.917 428.207 364.684 429.283 365.179 430.489C365.674 431.696 365.882 433 365.788 434.301C365.867 436.286 365.263 438.238 364.075 439.831C362.888 441.423 361.19 442.56 359.264 443.051L368.093 457.777H363.718L355.905 444.184H349.03ZM349.03 440.902H354.225C356.305 441.062 358.375 440.496 360.085 439.301C360.738 438.692 361.247 437.945 361.571 437.113C361.896 436.281 362.029 435.386 361.96 434.496C362.039 433.619 361.906 432.735 361.573 431.919C361.24 431.104 360.716 430.38 360.046 429.809C358.193 428.724 356.053 428.234 353.913 428.402H349.03V440.902Z" fill="white"/>
<path d="M393.991 457.778L390.085 447.387H376.843L372.937 457.778H369.03L381.921 424.926H385.124L397.937 457.778H393.991ZM388.757 443.95L384.851 433.793C384.323 432.243 383.88 430.665 383.522 429.067C383.171 430.512 382.702 432.075 382.116 433.793L378.21 443.95H388.757Z" fill="white"/>
<path d="M427.859 457.779H423.562L405.71 430.435C405.945 433.638 406.062 436.607 406.062 439.302V457.896H402.546V425.044H406.843L424.617 452.388C424.617 451.958 424.617 450.669 424.382 448.482C424.148 446.294 424.382 444.576 424.382 443.794V425.044H427.898L427.859 457.779Z" fill="white"/>
<path d="M451.18 440.629H462.274V456.528C460.553 457.095 458.79 457.526 457.001 457.817C454.943 458.103 452.867 458.234 450.79 458.207C448.634 458.362 446.469 458.047 444.446 457.285C442.423 456.523 440.589 455.332 439.071 453.793C436.229 450.319 434.831 445.886 435.165 441.411C435.091 438.307 435.789 435.233 437.196 432.465C438.52 429.971 440.561 427.93 443.055 426.606C445.85 425.195 448.95 424.497 452.079 424.575C455.416 424.56 458.723 425.211 461.805 426.489L460.321 429.848C457.637 428.657 454.741 428.019 451.805 427.973C450.093 427.883 448.382 428.153 446.78 428.765C445.179 429.377 443.724 430.318 442.509 431.528C440.148 434.261 438.943 437.805 439.149 441.411C438.89 445.05 440.052 448.649 442.391 451.45C443.636 452.656 445.122 453.586 446.751 454.178C448.38 454.771 450.116 455.012 451.844 454.887C454.081 454.885 456.309 454.623 458.485 454.106V444.028H451.18V440.629Z" fill="white"/>
<path d="M488.288 457.779H470.085V425.044H488.288V428.443H473.913V438.912H487.429V442.271H473.913V454.537H488.288V457.779Z" fill="white"/>
<path d="M499.302 444.184V457.777H495.396V425.043H504.615C507.744 424.809 510.863 425.619 513.482 427.348C514.462 428.207 515.23 429.283 515.725 430.489C516.219 431.696 516.428 433 516.333 434.301C516.42 436.287 515.819 438.243 514.63 439.837C513.441 441.432 511.739 442.567 509.81 443.051L518.638 457.777H514.029L506.216 444.184H499.302ZM499.302 440.902H504.615C506.707 441.071 508.793 440.505 510.513 439.301C511.174 438.696 511.689 437.95 512.021 437.118C512.352 436.286 512.491 435.389 512.427 434.496C512.506 433.619 512.374 432.735 512.041 431.919C511.708 431.104 511.184 430.38 510.513 429.809C508.662 428.72 506.521 428.229 504.38 428.402H499.302V440.902Z" fill="white"/>
<path d="M290.202 429.887C307.354 429.887 321.257 415.984 321.257 398.833C321.257 381.681 307.354 367.778 290.202 367.778C273.051 367.778 259.148 381.681 259.148 398.833C259.148 415.984 273.051 429.887 290.202 429.887Z" fill="white" fill-opacity="0.42"/>
<path d="M290.201 470.004H272.076V405.473L290.201 389.731V470.004Z" fill="#0A4A04"/>
<path d="M248.328 389.731L271.492 429.887L294.656 470.004H248.328H202L225.164 429.887L248.328 389.731Z" fill="white" fill-opacity="0.58"/>
</g>
<defs>
<filter id="filter0_i_9474_949" x="601.541" y="641.369" width="55.843" height="268.187" filterUnits="userSpaceOnUse" color-interpolation-filters="sRGB">
<feFlood flood-opacity="0" result="BackgroundImageFix"/>
<feBlend mode="normal" in="SourceGraphic" in2="BackgroundImageFix" result="shape"/>
<feColorMatrix in="SourceAlpha" type="matrix" values="0 0 0 0 0 0 0 0 0 0 0 0 0 0 0 0 0 0 127 0" result="hardAlpha"/>
<feOffset dx="-2.8125" dy="-2.8125"/>
<feGaussianBlur stdDeviation="70.3125"/>
<feComposite in2="hardAlpha" operator="arithmetic" k2="-1" k3="1"/>
<feColorMatrix type="matrix" values="0 0 0 0 1 0 0 0 0 1 0 0 0 0 1 0 0 0 0.02 0"/>
<feBlend mode="normal" in2="shape" result="effect1_innerShadow_9474_949"/>
</filter>
<filter id="filter1_i_9474_949" x="452.375" y="555.375" width="205.005" height="138.33" filterUnits="userSpaceOnUse" color-interpolation-filters="sRGB">
<feFlood flood-opacity="0" result="BackgroundImageFix"/>
<feBlend mode="normal" in="SourceGraphic" in2="BackgroundImageFix" result="shape"/>
<feColorMatrix in="SourceAlpha" type="matrix" values="0 0 0 0 0 0 0 0 0 0 0 0 0 0 0 0 0 0 127 0" result="hardAlpha"/>
<feOffset dx="-2.8125" dy="-2.8125"/>
<feGaussianBlur stdDeviation="70.3125"/>
<feComposite in2="hardAlpha" operator="arithmetic" k2="-1" k3="1"/>
<feColorMatrix type="matrix" values="0 0 0 0 1 0 0 0 0 1 0 0 0 0 1 0 0 0 0.02 0"/>
<feBlend mode="normal" in2="shape" result="effect1_innerShadow_9474_949"/>
</filter>
<filter id="filter2_i_9474_949" x="687.203" y="724.055" width="55.843" height="268.187" filterUnits="userSpaceOnUse" color-interpolation-filters="sRGB">
<feFlood flood-opacity="0" result="BackgroundImageFix"/>
<feBlend mode="normal" in="SourceGraphic" in2="BackgroundImageFix" result="shape"/>
<feColorMatrix in="SourceAlpha" type="matrix" values="0 0 0 0 0 0 0 0 0 0 0 0 0 0 0 0 0 0 127 0" result="hardAlpha"/>
<feOffset dx="-2.8125" dy="-2.8125"/>
<feGaussianBlur stdDeviation="70.3125"/>
<feComposite in2="hardAlpha" operator="arithmetic" k2="-1" k3="1"/>
<feColorMatrix type="matrix" values="0 0 0 0 1 0 0 0 0 1 0 0 0 0 1 0 0 0 0.02 0"/>
<feBlend mode="normal" in2="shape" result="effect1_innerShadow_9474_949"/>
</filter>
<filter id="filter3_i_9474_949" x="538.038" y="638.061" width="205.005" height="138.33" filterUnits="userSpaceOnUse" color-interpolation-filters="sRGB">
<feFlood flood-opacity="0" result="BackgroundImageFix"/>
<feBlend mode="normal" in="SourceGraphic" in2="BackgroundImageFix" result="shape"/>
<feColorMatrix in="SourceAlpha" type="matrix" values="0 0 0 0 0 0 0 0 0 0 0 0 0 0 0 0 0 0 127 0" result="hardAlpha"/>
<feOffset dx="-2.8125" dy="-2.8125"/>
<feGaussianBlur stdDeviation="70.3125"/>
<feComposite in2="hardAlpha" operator="arithmetic" k2="-1" k3="1"/>
<feColorMatrix type="matrix" values="0 0 0 0 1 0 0 0 0 1 0 0 0 0 1 0 0 0 0.02 0"/>
<feBlend mode="normal" in2="shape" result="effect1_innerShadow_9474_949"/>
</filter>
<filter id="filter4_i_9474_949" x="452.375" y="560.336" width="196.482" height="349.385" filterUnits="userSpaceOnUse" color-interpolation-filters="sRGB">
<feFlood flood-opacity="0" result="BackgroundImageFix"/>
<feBlend mode="normal" in="SourceGraphic" in2="BackgroundImageFix" result="shape"/>
<feColorMatrix in="SourceAlpha" type="matrix" values="0 0 0 0 0 0 0 0 0 0 0 0 0 0 0 0 0 0 127 0" result="hardAlpha"/>
<feOffset dx="-2.8125" dy="-2.8125"/>
<feGaussianBlur stdDeviation="70.3125"/>
<feComposite in2="hardAlpha" operator="arithmetic" k2="-1" k3="1"/>
<feColorMatrix type="matrix" values="0 0 0 0 1 0 0 0 0 1 0 0 0 0 1 0 0 0 0.02 0"/>
<feBlend mode="normal" in2="shape" result="effect1_innerShadow_9474_949"/>
</filter>
<filter id="filter5_i_9474_949" x="87.0378" y="70.3687" width="55.843" height="268.187" filterUnits="userSpaceOnUse" color-interpolation-filters="sRGB">
<feFlood flood-opacity="0" result="BackgroundImageFix"/>
<feBlend mode="normal" in="SourceGraphic" in2="BackgroundImageFix" result="shape"/>
<feColorMatrix in="SourceAlpha" type="matrix" values="0 0 0 0 0 0 0 0 0 0 0 0 0 0 0 0 0 0 127 0" result="hardAlpha"/>
<feOffset dx="-2.8125" dy="-2.8125"/>
<feGaussianBlur stdDeviation="70.3125"/>
<feComposite in2="hardAlpha" operator="arithmetic" k2="-1" k3="1"/>
<feColorMatrix type="matrix" values="0 0 0 0 1 0 0 0 0 1 0 0 0 0 1 0 0 0 0.02 0"/>
<feBlend mode="normal" in2="shape" result="effect1_innerShadow_9474_949"/>
</filter>
<filter id="filter6_i_9474_949" x="87.0417" y="-15.625" width="205.005" height="138.33" filterUnits="userSpaceOnUse" color-interpolation-filters="sRGB">
<feFlood flood-opacity="0" result="BackgroundImageFix"/>
<feBlend mode="normal" in="SourceGraphic" in2="BackgroundImageFix" result="shape"/>
<feColorMatrix in="SourceAlpha" type="matrix" values="0 0 0 0 0 0 0 0 0 0 0 0 0 0 0 0 0 0 127 0" result="hardAlpha"/>
<feOffset dx="-2.8125" dy="-2.8125"/>
<feGaussianBlur stdDeviation="70.3125"/>
<feComposite in2="hardAlpha" operator="arithmetic" k2="-1" k3="1"/>
<feColorMatrix type="matrix" values="0 0 0 0 1 0 0 0 0 1 0 0 0 0 1 0 0 0 0.02 0"/>
<feBlend mode="normal" in2="shape" result="effect1_innerShadow_9474_949"/>
</filter>
<filter id="filter7_i_9474_949" x="1.37498" y="153.055" width="55.843" height="268.187" filterUnits="userSpaceOnUse" color-interpolation-filters="sRGB">
<feFlood flood-opacity="0" result="BackgroundImageFix"/>
<feBlend mode="normal" in="SourceGraphic" in2="BackgroundImageFix" result="shape"/>
<feColorMatrix in="SourceAlpha" type="matrix" values="0 0 0 0 0 0 0 0 0 0 0 0 0 0 0 0 0 0 127 0" result="hardAlpha"/>
<feOffset dx="-2.8125" dy="-2.8125"/>
<feGaussianBlur stdDeviation="70.3125"/>
<feComposite in2="hardAlpha" operator="arithmetic" k2="-1" k3="1"/>
<feColorMatrix type="matrix" values="0 0 0 0 1 0 0 0 0 1 0 0 0 0 1 0 0 0 0.02 0"/>
<feBlend mode="normal" in2="shape" result="effect1_innerShadow_9474_949"/>
</filter>
<filter id="filter8_i_9474_949" x="1.37881" y="67.061" width="205.005" height="138.33" filterUnits="userSpaceOnUse" color-interpolation-filters="sRGB">
<feFlood flood-opacity="0" result="BackgroundImageFix"/>
<feBlend mode="normal" in="SourceGraphic" in2="BackgroundImageFix" result="shape"/>
<feColorMatrix in="SourceAlpha" type="matrix" values="0 0 0 0 0 0 0 0 0 0 0 0 0 0 0 0 0 0 127 0" result="hardAlpha"/>
<feOffset dx="-2.8125" dy="-2.8125"/>
<feGaussianBlur stdDeviation="70.3125"/>
<feComposite in2="hardAlpha" operator="arithmetic" k2="-1" k3="1"/>
<feColorMatrix type="matrix" values="0 0 0 0 1 0 0 0 0 1 0 0 0 0 1 0 0 0 0.02 0"/>
<feBlend mode="normal" in2="shape" result="effect1_innerShadow_9474_949"/>
</filter>
<filter id="filter9_i_9474_949" x="95.5649" y="-10.6641" width="196.482" height="349.385" filterUnits="userSpaceOnUse" color-interpolation-filters="sRGB">
<feFlood flood-opacity="0" result="BackgroundImageFix"/>
<feBlend mode="normal" in="SourceGraphic" in2="BackgroundImageFix" result="shape"/>
<feColorMatrix in="SourceAlpha" type="matrix" values="0 0 0 0 0 0 0 0 0 0 0 0 0 0 0 0 0 0 127 0" result="hardAlpha"/>
<feOffset dx="-2.8125" dy="-2.8125"/>
<feGaussianBlur stdDeviation="70.3125"/>
<feComposite in2="hardAlpha" operator="arithmetic" k2="-1" k3="1"/>
<feColorMatrix type="matrix" values="0 0 0 0 1 0 0 0 0 1 0 0 0 0 1 0 0 0 0.02 0"/>
<feBlend mode="normal" in2="shape" result="effect1_innerShadow_9474_949"/>
</filter>
<linearGradient id="paint0_linear_9474_949" x1="369.5" y1="0" x2="369.5" y2="900" gradientUnits="userSpaceOnUse">
<stop offset="0.33" stop-color="#429180"/>
<stop offset="1" stop-color="#65CD94"/>
</linearGradient>
<radialGradient id="paint1_radial_9474_949" cx="0" cy="0" r="1" gradientUnits="userSpaceOnUse" gradientTransform="rotate(87.3696) scale(216.204 13.7743)">
<stop stop-color="white" stop-opacity="0.4"/>
<stop offset="1" stop-color="white" stop-opacity="0"/>
</radialGradient>
<radialGradient id="paint2_radial_9474_949" cx="0" cy="0" r="1" gradientUnits="userSpaceOnUse" gradientTransform="rotate(86.7029) scale(172.523 13.766)">
<stop stop-color="white" stop-opacity="0.4"/>
<stop offset="1" stop-color="white" stop-opacity="0"/>
</radialGradient>
<radialGradient id="paint3_radial_9474_949" cx="0" cy="0" r="1" gradientUnits="userSpaceOnUse" gradientTransform="rotate(87.3696) scale(216.204 13.7743)">
<stop stop-color="white" stop-opacity="0.4"/>
<stop offset="1" stop-color="white" stop-opacity="0"/>
</radialGradient>
<radialGradient id="paint4_radial_9474_949" cx="0" cy="0" r="1" gradientUnits="userSpaceOnUse" gradientTransform="rotate(86.7029) scale(172.523 13.766)">
<stop stop-color="white" stop-opacity="0.4"/>
<stop offset="1" stop-color="white" stop-opacity="0"/>
</radialGradient>
<radialGradient id="paint5_radial_9474_949" cx="0" cy="0" r="1" gradientUnits="userSpaceOnUse" gradientTransform="rotate(51.4152) scale(276.295 187.187)">
<stop stop-color="white" stop-opacity="0.4"/>
<stop offset="1" stop-color="white" stop-opacity="0"/>
</radialGradient>
<radialGradient id="paint6_radial_9474_949" cx="0" cy="0" r="1" gradientUnits="userSpaceOnUse" gradientTransform="rotate(87.3696) scale(216.204 13.7743)">
<stop stop-color="white" stop-opacity="0.4"/>
<stop offset="1" stop-color="white" stop-opacity="0"/>
</radialGradient>
<radialGradient id="paint7_radial_9474_949" cx="0" cy="0" r="1" gradientUnits="userSpaceOnUse" gradientTransform="rotate(86.7029) scale(172.523 13.766)">
<stop stop-color="white" stop-opacity="0.4"/>
<stop offset="1" stop-color="white" stop-opacity="0"/>
</radialGradient>
<radialGradient id="paint8_radial_9474_949" cx="0" cy="0" r="1" gradientUnits="userSpaceOnUse" gradientTransform="rotate(87.3696) scale(216.204 13.7743)">
<stop stop-color="white" stop-opacity="0.4"/>
<stop offset="1" stop-color="white" stop-opacity="0"/>
</radialGradient>
<radialGradient id="paint9_radial_9474_949" cx="0" cy="0" r="1" gradientUnits="userSpaceOnUse" gradientTransform="rotate(86.7029) scale(172.523 13.766)">
<stop stop-color="white" stop-opacity="0.4"/>
<stop offset="1" stop-color="white" stop-opacity="0"/>
</radialGradient>
<radialGradient id="paint10_radial_9474_949" cx="0" cy="0" r="1" gradientUnits="userSpaceOnUse" gradientTransform="rotate(51.4152) scale(276.295 187.187)">
<stop stop-color="white" stop-opacity="0.4"/>
<stop offset="1" stop-color="white" stop-opacity="0"/>
</radialGradient>
<clipPath id="clip0_9474_949">
<rect width="739" height="900" fill="white"/>
</clipPath>
<clipPath id="clip1_9474_949">
<rect width="172.318" height="215.976" fill="white" transform="matrix(0.866025 0.5 -2.20305e-08 1 476 583.961)"/>
</clipPath>
<clipPath id="clip2_9474_949">
<rect width="172.318" height="215.976" fill="white" transform="matrix(-0.866025 0.5 2.20305e-08 1 268.421 12.9609)"/>
</clipPath>
</defs>
</svg>
